<?xml version="1.0" standalone="no"?>
<!DOCTYPE svg PUBLIC "-//W3C//DTD SVG 1.1//EN" "http://www.w3.org/Graphics/SVG/1.1/DTD/svg11.dtd" >
<svg xmlns="http://www.w3.org/2000/svg" xmlns:xlink="http://www.w3.org/1999/xlink" version="1.1">
<metadata></metadata>
<defs>
<font id="cambriaregular" horiz-adv-x="1134" >
<font-face units-per-em="2048" ascent="1593" descent="-455" />
<missing-glyph horiz-adv-x="451" />
<glyph unicode="f&#xfb01;" horiz-adv-x="1809" d="M79 855v51q39 7 51 10t23.5 10t20 20t15 38.5t10.5 71.5q9 109 39.5 177t89 116t125 67.5t156.5 19.5q79 0 134 -11v-181h-99q-19 59 -44.5 83.5t-71.5 24.5q-33 0 -55.5 -9t-41.5 -28t-32.5 -51t-20 -79.5t-6.5 -123.5v-105h427q15 26 20 100q7 123 56.5 209 t132.5 128.5t193 42.5q57 0 108 -9v-183h-82q-11 55 -32.5 79.5t-61.5 24.5q-37 0 -63.5 -17t-45 -53.5t-25.5 -94.5t-7 -139v-88h239v-101h-239v-605q0 -67 6.5 -101t19 -51.5t33 -28t65.5 -20.5v-49h-409v49q44 12 63 23t29.5 28t15.5 49t5 101v605h-448v-605 q0 -67 6.5 -101t19 -51.5t33 -28t65.5 -20.5v-49h-409v49q44 12 63 23t29.5 28t15.5 49t5 101v605h-121zM1323 903v53l233 9h61v-715q0 -86 8 -119.5t30.5 -51t73.5 -30.5v-49h-392v49q38 12 55 21t29 25t18 49t6 103v436q0 64 -2 103t-14 62.5t-36.5 35t-69.5 19.5z M1440 1154v194h184v-194h-184z" />
<glyph unicode="f&#xfb02;" horiz-adv-x="1795" d="M79 855v51q39 7 51 10t23.5 10t20 20t15 38.5t10.5 71.5q9 109 39.5 177t89 116t125 67.5t156.5 19.5q79 0 134 -11v-181h-99q-19 59 -44.5 83.5t-71.5 24.5q-33 0 -55.5 -9t-41.5 -28t-32.5 -51t-20 -79.5t-6.5 -123.5v-105h427q15 26 20 100q7 123 56.5 209 t132.5 128.5t193 42.5q57 0 108 -9v-6l235 10h60v-1181q0 -86 8 -119.5t30.5 -51t73.5 -30.5v-49h-397v49q44 12 63 23t29.5 28t15.5 49t5 101v837q0 96 -1.5 134t-8 64t-17.5 41t-30.5 24.5t-65.5 17.5v-124h-82q-11 55 -32.5 79.5t-61.5 24.5q-37 0 -63.5 -17t-45 -53.5 t-25.5 -94.5t-7 -139v-88h239v-101h-239v-605q0 -67 6.5 -101t19 -51.5t33 -28t65.5 -20.5v-49h-409v49q44 12 63 23t29.5 28t15.5 49t5 101v605h-448v-605q0 -67 6.5 -101t19 -51.5t33 -28t65.5 -20.5v-49h-409v49q44 12 63 23t29.5 28t15.5 49t5 101v605h-121z" />
<glyph horiz-adv-x="0" />
<glyph horiz-adv-x="0" />
<glyph unicode="&#xd;" horiz-adv-x="451" />
<glyph unicode=" "  horiz-adv-x="451" />
<glyph unicode="&#x09;" horiz-adv-x="451" />
<glyph unicode="&#xa0;" horiz-adv-x="451" />
<glyph unicode="!" horiz-adv-x="585" d="M192 1365h211l-65 -949h-97zM193 0v232h200v-232h-200z" />
<glyph unicode="&#x22;" horiz-adv-x="805" d="M145 1431h195l-64 -467h-105zM484 1431h194l-63 -467h-106z" />
<glyph unicode="#" horiz-adv-x="1268" d="M110 423v114h215l43 297h-208v115h224l58 417h135l-60 -417h308l59 417h134l-60 -417h200v-115h-215l-42 -297h209v-114h-226l-58 -423h-135l60 423h-307l-58 -423h-135l59 423h-200zM460 537h307l42 297h-307z" />
<glyph unicode="$" horiz-adv-x="1036" d="M112 95v220h100q24 -103 85.5 -150.5t176.5 -51.5v518l-25 12q-131 63 -194 110.5t-97 106.5t-34 138q0 76 28 136t76.5 103t113.5 68.5t138 32.5v191h104v-185q175 -1 329 -57v-216h-99q-27 91 -83 136.5t-147 48.5v-481q140 -67 210 -120t107 -118t37 -153 q0 -163 -91 -251.5t-269 -102.5v-186h-104v184q-89 2 -189.5 21t-172.5 46zM289 1052q0 -81 44.5 -134.5t146.5 -102.5v438q-86 -11 -138.5 -65.5t-52.5 -135.5zM578 116q93 10 143 67.5t50 154.5q0 86 -46 145t-147 109v-476zM1036 1365z" />
<glyph unicode="%" horiz-adv-x="1822" d="M105 942q0 148 40.5 246.5t111 145.5t163.5 47q87 0 146 -31t95.5 -86.5t52 -133t15.5 -170.5q0 -219 -82.5 -331t-237.5 -112q-153 0 -228.5 106t-75.5 319zM253 959q0 -194 40 -282t127 -88q82 0 121.5 82t39.5 262q0 192 -39.5 284t-122.5 92q-63 0 -99.5 -42 t-51.5 -118.5t-15 -189.5zM397 -96l884 1461h145l-882 -1461h-147zM1093 313q0 148 40.5 246.5t111 145.5t163.5 47q87 0 146 -31t95.5 -86.5t52 -133t15.5 -170.5q0 -219 -82.5 -331t-237.5 -112q-153 0 -228.5 106t-75.5 319zM1241 330q0 -194 40 -282t127 -88 q82 0 121.5 82t39.5 262q0 192 -39.5 284t-122.5 92q-63 0 -99.5 -42t-51.5 -118.5t-15 -189.5z" />
<glyph unicode="&#x26;" horiz-adv-x="1408" d="M89 322q0 82 30.5 148.5t98 129.5t183.5 130q-73 96 -104 174.5t-31 160.5q0 93 48 164.5t136.5 111.5t196.5 40q67 0 125.5 -13.5t102 -43.5t68.5 -78t25 -117q0 -33 -7 -63.5t-21 -58t-36.5 -56.5t-62 -63t-100.5 -72t-135 -80q50 -67 150 -186t201 -230 q67 69 99.5 138t32.5 142q0 52 -24 78t-77 32v49h285v-49q0 -14 -10 -59q-6 -29 -15 -58q-9 -28 -21 -56t-27 -55q-15 -29 -34 -57t-41 -56q-23 -29 -51 -58q-27 -29 -58 -58q49 -57 85.5 -89t65 -45.5t59.5 -13.5q30 0 57.5 14t73.5 53l46 -57q-60 -62 -125.5 -96.5 t-125.5 -34.5q-49 0 -85.5 13t-74.5 43t-98 96q-102 -82 -197.5 -117t-211.5 -35q-121 0 -211 41.5t-137.5 117.5t-47.5 179zM268 363q0 -83 34 -143.5t93 -90.5t133 -30q87 0 157 23t149 81q-32 36 -92 106l-165 197q-41 50 -73 90l-48 62q-98 -64 -143 -134.5t-45 -160.5z M434 1082q0 -61 25.5 -125t90.5 -153q128 68 193.5 146t65.5 163q0 57 -21.5 98.5t-61.5 63t-91 21.5q-59 0 -104.5 -25.5t-71 -74t-25.5 -114.5z" />
<glyph unicode="'" horiz-adv-x="485" d="M145 1431h213l-73 -477h-106z" />
<glyph unicode="(" horiz-adv-x="782" d="M180 496q0 284 26.5 452.5t86.5 274.5t168 159t278 53v-82q-70 0 -124 -12q-61 -14 -104 -54q-48 -44 -78 -123q-35 -92 -52 -244q-18 -161 -18 -416q0 -225 15 -382.5t50 -257.5q28 -84 70 -131q37 -41 88 -62q59 -24 153 -24v-82q-170 0 -277.5 51t-167.5 155.5 t-87 271.5t-27 453z" />
<glyph unicode=")" horiz-adv-x="782" d="M43 -353q70 0 124 12q61 14 104 54q48 44 78 123q35 92 52 244q18 161 18 416q0 225 -15 382.5t-50 257.5q-28 84 -70 131q-37 41 -88 62q-59 24 -153 24v82q170 0 277.5 -51t167.5 -155.5t87 -271.5t27 -453q0 -284 -26.5 -452.5t-86.5 -274.5t-168 -159t-278 -53v82z " />
<glyph unicode="*" horiz-adv-x="875" d="M78 920l286 134l-286 133l66 112l258 -181l-30 313h132l-29 -313l257 181l65 -112l-285 -133l285 -134l-65 -111l-257 181l29 -313h-132l30 313l-258 -181z" />
<glyph unicode="+" d="M124 516v139h369v378h147v-378h370v-139h-370v-379h-147v379h-369z" />
<glyph unicode="," horiz-adv-x="420" d="M24 -215q51 48 74 86.5t33 87.5t10 123q0 76 -7 150h175q14 -70 14 -138q0 -70 -24 -128t-76.5 -115.5t-144.5 -126.5z" />
<glyph unicode="-" horiz-adv-x="680" d="M108 449v155h464v-155h-464z" />
<glyph unicode="&#xad;" horiz-adv-x="680" d="M108 449v155h464v-155h-464z" />
<glyph unicode="." horiz-adv-x="420" d="M109 0v232h202v-232h-202z" />
<glyph unicode="/" horiz-adv-x="1004" d="M62 -430l724 1861h155l-722 -1861h-157z" />
<glyph unicode="0" d="M129 670q0 184 32.5 318t91 221.5t140.5 129.5t179 42q219 0 326 -169t107 -511q0 -354 -114.5 -535.5t-334.5 -181.5q-216 0 -321.5 170t-105.5 516zM324 700q0 -326 60.5 -478.5t187.5 -152.5q121 0 179.5 143.5t58.5 444.5q0 230 -30 372.5t-83.5 204.5t-129.5 62 q-69 0 -115.5 -41t-75 -118t-40.5 -187.5t-12 -249.5z" />
<glyph unicode="1" d="M178 1102l468 279h55q-6 -96 -6 -266v-854q0 -58 6.5 -87.5t23 -48t47.5 -29t78 -16t124 -7.5v-73h-739v73q111 5 158.5 13.5t72.5 25.5t36.5 48t11.5 101v811q0 40 -14 58.5t-41 18.5q-32 0 -91 -33t-146 -91z" />
<glyph unicode="2" d="M129 0v48q43 105 116 215t207 259q116 128 167 194q56 72 83.5 124.5t39.5 99t12 93.5q0 75 -24 132.5t-73.5 90.5t-124.5 33q-187 0 -252 -208h-121v192q121 57 226.5 82.5t189.5 25.5q186 0 281 -81.5t95 -236.5q0 -53 -10.5 -97.5t-33 -88t-60.5 -93.5t-84 -101.5 t-159 -171.5q-190 -201 -279 -351h377q49 0 79 6t48 20t28.5 36.5t26.5 69.5h85l-17 -292h-823z" />
<glyph unicode="3" d="M144 55v212h120q35 -104 92.5 -151t156.5 -47q130 0 196.5 71t66.5 210q0 146 -88 223t-258 77h-90v88q135 8 227.5 52t137.5 113t45 155q0 111 -59 171t-172 60q-94 0 -153 -51t-87 -156h-120v190q116 55 217 82t195 27q113 0 198 -35t130 -100.5t45 -156.5 q0 -85 -34 -149.5t-95.5 -112.5t-159.5 -94v-9q61 -11 117.5 -37.5t100.5 -68.5t70.5 -100.5t26.5 -133.5q0 -116 -50.5 -206t-154.5 -142t-253 -52q-86 0 -185.5 19.5t-182.5 51.5z" />
<glyph unicode="4" d="M77 414v75l585 883h143v-861h21q58 0 83 8.5t41.5 30t30.5 70.5h76l-12 -206h-240v-164q0 -67 4.5 -98t15 -49t31 -30t66.5 -24v-49h-406v49q62 16 83 35.5t27.5 55.5t6.5 110v164h-556zM242 511h391v249q0 94 3 210.5t7 175.5h-10l-391 -621v-14z" />
<glyph unicode="5" d="M150 55v212h121q30 -102 90.5 -150t156.5 -48q133 0 201 80t68 239q0 106 -36 175.5t-97 100.5t-142 31q-68 0 -117 -8.5t-105 -26.5l-80 47v658h551q34 0 49 5.5t24 17t21 43.5h78l-15 -232h-575v-439q52 22 113 33t122 11q119 0 211 -48.5t142 -138t50 -207.5 q0 -134 -56 -230t-162 -146t-251 -50q-173 0 -362 71z" />
<glyph unicode="6" d="M130 521q0 178 56 333t159 270.5t239 182t286 74.5l41 -55v-49q-154 0 -273 -66t-197.5 -194t-110.5 -304l10 -4q84 60 165.5 88t176.5 28q113 0 192.5 -49.5t119.5 -139t40 -209.5q0 -130 -50 -229.5t-154.5 -156.5t-257.5 -57q-219 0 -330.5 136t-111.5 401zM321 460 q0 -191 64 -291t194 -100q75 0 126 26t82.5 71.5t45 107t13.5 133.5q0 148 -61 230.5t-172 82.5q-49 0 -94.5 -11t-85.5 -32t-78 -53q-12 -11 -18 -23q-10 -19 -13 -47t-3 -94z" />
<glyph unicode="7" d="M148 1041l20 324h858v-48l-582 -1324h-145v49l539 1141v15h-440q-41 0 -65.5 -7.5t-41 -21.5t-27.5 -37t-30 -91h-86z" />
<glyph unicode="8" d="M111 360q0 87 30 151t78.5 105.5t122.5 75.5l-2 13q-215 93 -215 319q0 103 56.5 184t161 127t231.5 46q144 0 242 -40.5t147.5 -117t49.5 -183.5q0 -110 -54 -189.5t-167 -129.5l2 -13q113 -44 171 -128.5t58 -203.5q0 -117 -56 -206t-162.5 -137.5t-248.5 -48.5 q-133 0 -233.5 44.5t-156 130t-55.5 201.5zM302 377q0 -65 15 -121.5t47.5 -97.5t83.5 -65t124 -24q82 0 140.5 33.5t89 99.5t30.5 156q0 96 -33 165.5t-93 106t-139 36.5q-74 0 -124.5 -23t-82 -62t-45 -91.5t-13.5 -112.5zM313 1033q0 -59 14 -111t45 -90t80.5 -60.5 t121.5 -22.5q83 0 139.5 32.5t84 95t27.5 144.5q0 90 -32.5 152.5t-89.5 92.5t-131 30q-126 0 -192.5 -68.5t-66.5 -194.5z" />
<glyph unicode="9" d="M100 938q0 90 30 170.5t89 141t147.5 96t206.5 35.5q210 0 320 -145t110 -417q0 -249 -81 -431.5t-227 -284t-341 -119.5l-41 55v49q140 0 242.5 62t165 183.5t83.5 318.5l-10 4q-84 -60 -165.5 -88t-176.5 -28q-113 0 -192.5 49.5t-119.5 139t-40 209.5zM288 958 q0 -149 61 -231t172 -82q38 0 72.5 6.5t67.5 19t64.5 32t56.5 41.5q9 8 16 21t11 34t4 66q0 137 -27.5 234.5t-84 147t-139.5 49.5q-75 0 -127 -26t-84.5 -71.5t-47.5 -107t-15 -133.5z" />
<glyph unicode=":" horiz-adv-x="540" d="M170 0v232h200v-232h-200zM170 669v234h200v-234h-200z" />
<glyph unicode=";" horiz-adv-x="540" d="M73 -215q51 48 74 86.5t33 87.5t10 123q0 76 -7 150h175q14 -70 14 -138q0 -70 -24 -128t-76.5 -115.5t-144.5 -126.5zM170 669v234h200v-234h-200z" />
<glyph unicode="&#x3c;" d="M124 515v140l886 381v-150l-738 -301l738 -301v-150z" />
<glyph unicode="=" d="M124 308v139h886v-139h-886zM124 723v139h886v-139h-886z" />
<glyph unicode="&#x3e;" d="M124 134v150l738 301l-738 301v150l886 -381v-140z" />
<glyph unicode="?" horiz-adv-x="865" d="M92 1113v164q114 58 193.5 81t156.5 23q120 0 198.5 -36t114 -98t35.5 -143q0 -41 -7.5 -75.5t-22.5 -67.5t-38 -67.5t-51.5 -69.5t-99.5 -118q-53 -62 -77 -99.5t-34 -73t-10 -92.5v-25h-134v34q0 41 5 66t17.5 53.5t39 67.5t75.5 100q58 74 83.5 120t38.5 95.5 t13 110.5q0 77 -21 130.5t-59 80.5t-88 27q-79 0 -126.5 -47t-65.5 -141h-136zM285 0v232h200v-232h-200z" />
<glyph unicode="@" horiz-adv-x="1813" d="M137 538q0 173 60 327t176 271.5t275 181t348 63.5q182 0 316.5 -50t216 -139t118.5 -200.5t37 -243.5q0 -166 -50 -296t-141.5 -200.5t-212.5 -70.5q-42 0 -80 10.5t-66.5 33.5t-45.5 60t-17 90q0 24 3 47l-13 1q-84 -126 -159.5 -184t-153.5 -58q-65 0 -112 33.5 t-70.5 95.5t-23.5 145q0 81 19.5 164t58 158t92 131.5t125 91t154.5 34.5q59 0 107.5 -13.5t91.5 -40.5l78 54l64 -15l-111 -501q-10 -44 -14.5 -73t-4.5 -56q0 -115 96 -115q71 0 126 57.5t85 159t30 220.5q0 187 -60.5 315.5t-180.5 194.5t-291 66q-211 0 -369.5 -94.5 t-244.5 -269.5t-86 -399q0 -194 66.5 -325t193.5 -196.5t304 -65.5q86 0 157.5 12t152.5 38l24 -90q-64 -25 -153.5 -39t-185.5 -14q-250 0 -412.5 82t-239.5 236t-77 376zM708 462q0 -85 23 -127t76 -42q42 0 83.5 30.5t88 90.5t76 122.5t46.5 147.5l8 37q8 36 10.5 62 t2.5 52q0 64 -27 92t-89 28q-35 0 -66.5 -11.5t-64.5 -38t-62.5 -69t-53.5 -104t-37.5 -133t-13.5 -137.5z" />
<glyph unicode="A" horiz-adv-x="1276" d="M6 0v49q56 9 97.5 65t80.5 160l417 1107h158l340 -1115q24 -78 42.5 -119t44.5 -64t71 -34v-49h-461v49q50 10 74.5 22t36.5 33.5t12 57.5q0 34 -8 73.5t-23 88.5l-37 129h-466l-34 -98q-26 -74 -34 -112t-8 -69q0 -60 30.5 -88t93.5 -37v-49h-427zM412 540h418l-190 645 z" />
<glyph unicode="B" horiz-adv-x="1252" d="M121 0v49q62 16 83 35.5t27.5 55.5t6.5 110v865q0 69 -5 100.5t-16.5 49t-30.5 28t-65 23.5v49h547q159 0 255.5 -34t143.5 -100.5t47 -171.5q0 -87 -33.5 -151t-87.5 -106t-139 -78v-9q136 -41 206 -126.5t70 -203.5q0 -136 -60.5 -222t-169.5 -124.5t-264 -38.5h-515z M425 95q73 -7 163 -7q131 0 203.5 33t105 97.5t32.5 161.5t-35.5 160t-109.5 94t-204 31h-155v-570zM425 753h175q152 0 232.5 73.5t80.5 213.5q0 69 -22.5 114.5t-62 72.5t-93.5 38.5t-117 11.5q-38 0 -100 -2t-93 -4v-518z" />
<glyph unicode="C" horiz-adv-x="1152" d="M119 669q0 214 67.5 375t198.5 249t313 88q91 0 168 -9.5t176 -35.5v-277h-99q-24 87 -61 138.5t-86 73.5t-118 22q-103 0 -183.5 -68.5t-126.5 -206t-46 -332.5q0 -196 38 -334.5t112 -209t182 -70.5q82 0 134 23.5t87.5 74.5t67.5 150h99v-286q-94 -25 -192.5 -37.5 t-216.5 -12.5q-254 0 -384 172t-130 513z" />
<glyph unicode="D" horiz-adv-x="1355" d="M120 0v49q46 12 66 23t31 28t16 49t5 101v865q0 70 -5 101.5t-16.5 48.5t-30.5 27.5t-66 23.5v49h438q189 0 309.5 -41.5t203.5 -122.5t124 -201.5t41 -287.5q0 -169 -38.5 -297.5t-112.5 -215.5q-64 -76 -157 -125q-77 -40 -178 -57t-268 -17h-362zM425 93q40 -4 118 -4 q84 0 150 14t120 44t97 83.5t70 123t39.5 154.5t12.5 186q0 203 -58.5 333.5t-165 190.5t-254.5 60q-68 0 -129 -4v-1181z" />
<glyph unicode="E" horiz-adv-x="1178" d="M121 0v49q62 16 83 35.5t27.5 55.5t6.5 110v865q0 69 -5 100.5t-16.5 49t-30.5 28t-65 23.5v49h935v-302h-98q-15 49 -31 86t-33 62t-37.5 40t-48.5 20.5t-67 5.5h-316v-524h214q44 0 69 12.5t41.5 42.5t31.5 94h94v-384h-94q-14 60 -31 90.5t-40.5 43.5t-70.5 13h-214 v-577h311q49 0 79.5 8.5t52.5 29t39 53.5t28.5 68.5t31.5 103.5h99l-19 -351h-926z" />
<glyph unicode="F" horiz-adv-x="1099" d="M121 0v49q62 16 83 35.5t27.5 55.5t6.5 110v865q0 69 -5 100.5t-16.5 49t-30.5 28t-65 23.5v49h912v-302h-98q-22 68 -42.5 110t-43 64t-52.5 31t-79 9h-293v-544h206q44 0 69 14.5t41.5 48.5t31.5 105h94v-422h-94q-15 68 -32 102.5t-40.5 49t-69.5 14.5h-206v-392 q0 -60 7 -96t23 -57t43 -31.5t67 -19.5v-49h-444z" />
<glyph unicode="G" horiz-adv-x="1251" d="M119 673q0 213 70 374t201 247.5t308 86.5q93 0 179 -10.5t191 -36.5v-275h-99q-27 90 -64 140.5t-88.5 72t-130.5 21.5q-109 0 -191 -70t-127.5 -206.5t-45.5 -329.5q0 -196 38.5 -335t114.5 -209.5t187 -70.5q118 0 175 51.5t57 158.5v60q0 90 -9.5 130t-33.5 62 t-79 36v49h404v-49q-36 -12 -54 -27.5t-27.5 -38.5t-13 -56.5t-3.5 -95.5v-347l-78 -21l-73 78q-65 -40 -136 -59t-163 -19q-253 0 -381 173.5t-128 515.5z" />
<glyph unicode="H" horiz-adv-x="1406" d="M121 0v49q62 16 83 35.5t27.5 55.5t6.5 110v865q0 69 -5 100.5t-16.5 49t-30.5 28t-65 23.5v49h421v-49q-44 -11 -63.5 -22t-31 -27.5t-17 -49.5t-5.5 -102v-354h556v354q0 87 -8.5 119t-28.5 49t-79 33v49h419v-49q-56 -14 -78 -31.5t-30 -52.5t-8 -117v-865 q0 -58 3 -87t10 -46.5t17 -28.5t28.5 -20t57.5 -19v-49h-419v49q55 14 77 31t30.5 52t8.5 118v419h-556v-419q0 -67 4.5 -98t15 -49t31 -30t66.5 -24v-49h-421z" />
<glyph unicode="I" horiz-adv-x="664" d="M121 0v49q62 16 83 35.5t27.5 55.5t6.5 110v865q0 69 -5 100.5t-16.5 49t-30.5 28t-65 23.5v49h422v-49q-44 -11 -63.5 -22t-31 -27.5t-17 -49.5t-5.5 -102v-865q0 -67 4.5 -98t15 -49t31 -30t66.5 -24v-49h-422z" />
<glyph unicode="J" horiz-adv-x="628" d="M29 -304q88 34 125 68.5t51.5 86.5t14.5 140v1124q0 87 -8.5 119t-28 49t-80.5 33v49h422v-49q-44 -11 -63.5 -22t-31 -27.5t-17 -49.5t-5.5 -102v-1047q0 -135 -31.5 -219t-106 -142t-208.5 -99z" />
<glyph unicode="K" horiz-adv-x="1289" d="M121 0v49q62 16 83 35.5t27.5 55.5t6.5 110v865q0 69 -5 100.5t-16.5 49t-30.5 28t-65 23.5v49h421v-49q-44 -11 -63.5 -22t-31 -27.5t-17 -49.5t-5.5 -102l-1 -367h30q38 0 69.5 12t70.5 45t119 123q96 107 131 155q44 57 59 96q12 29 12 56q0 40 -23 58.5t-63 22.5v49 h436v-49q-32 -7 -63 -24.5t-63.5 -48t-95.5 -100.5l-336 -378l364 -529q58 -84 91 -117.5t63 -49t64 -20.5v-49h-441v49q37 3 54 14t17 33q0 18 -11.5 43.5t-36.5 61.5l-233 347q-41 62 -60 82t-41 29.5t-59 9.5h-53v-419q0 -67 4.5 -98t15 -49t31 -30t66.5 -24v-49h-421z " />
<glyph unicode="L" horiz-adv-x="1099" d="M121 0v49q62 16 83 35.5t27.5 55.5t6.5 110v865q0 69 -5 100.5t-16.5 49t-30.5 28t-65 23.5v49h421v-49q-44 -12 -62.5 -21.5t-30.5 -25.5t-18 -49t-6 -105v-1023h262q43 0 72 5t49.5 15.5t37 29t31.5 48.5t28.5 75.5t33.5 136.5h101l-20 -402h-899z" />
<glyph unicode="M" horiz-adv-x="1670" d="M117 0v49q62 16 83 35.5t27.5 55.5t6.5 110v865q0 69 -5 100.5t-16.5 49t-30.5 28t-65 23.5v49h357l351 -973l386 973h338v-49q-44 -11 -63.5 -22t-31 -27.5t-17 -49.5t-5.5 -102v-865q0 -67 4.5 -98t15 -49t31 -30t66.5 -24v-49h-417v49q57 14 79 32t30 53t8 116v383 q0 151 4.5 305.5t10.5 211.5h-17l-396 -991h-115l-368 1007h-17q5 -61 9.5 -221t4.5 -329v-366q0 -67 4.5 -98t15 -49t31 -30t66.5 -24v-49h-365z" />
<glyph unicode="N" horiz-adv-x="1394" d="M117 0v49q62 16 83 35.5t27.5 55.5t6.5 110v865q0 69 -5 100.5t-16.5 49t-30.5 28t-65 23.5v49h313l494 -824q36 -60 60.5 -105t50.5 -101h13q-5 61 -9 242.5t-4 327.5v210q0 69 -4 101t-14.5 49t-29 27.5t-64.5 23.5v49h360v-49q-45 -12 -63.5 -22t-30 -26t-17.5 -48 t-6 -105v-1121h-125l-557 934q-52 87 -74 127t-41 79h-17q7 -77 10 -278.5t3 -401.5v-204q0 -67 4.5 -98t15 -49t31 -30t66.5 -24v-49h-365z" />
<glyph unicode="O" horiz-adv-x="1338" d="M119 671q0 223 68 383t194.5 243.5t293.5 83.5q178 0 299.5 -78.5t183 -231t61.5 -371.5q0 -234 -70 -395t-197.5 -241t-297.5 -80q-120 0 -218.5 39.5t-169 123t-109 213.5t-38.5 311zM325 699q0 -307 89.5 -467t261.5 -160q109 0 185 69.5t114 203.5t38 313 q0 218 -44.5 361.5t-121.5 208.5t-179 65q-90 0 -154.5 -42t-107 -119.5t-62 -187.5t-19.5 -245z" />
<glyph unicode="P" horiz-adv-x="1163" d="M121 0v49q62 16 83 35.5t27.5 55.5t6.5 110v865q0 69 -5 100.5t-16.5 49t-30.5 28t-65 23.5v49h496q234 0 348.5 -89.5t114.5 -272.5q0 -104 -36 -187t-102 -136t-156 -76t-189 -23q-111 0 -172 4v-332q0 -59 6.5 -94t20 -55.5t36.5 -32t72 -22.5v-49h-439zM425 668h116 q113 0 186.5 29.5t112.5 98t39 181.5q0 86 -23 143.5t-63.5 92.5t-96.5 49.5t-122 14.5q-99 0 -149 -4v-605z" />
<glyph unicode="Q" horiz-adv-x="1338" d="M119 671q0 223 68 383t194.5 243.5t293.5 83.5q178 0 299.5 -78.5t183 -231t61.5 -371.5q0 -278 -99 -455.5t-288 -235.5l35 -51q27 -39 51 -70.5t51.5 -60t52 -46t46.5 -25t42 -7.5q55 0 95 20.5t77 56.5l48 -62q-78 -78 -145 -112t-138 -34q-57 0 -94 11t-73.5 36 t-81.5 76t-104 139l-71 105q-249 12 -376.5 187t-127.5 499zM325 699q0 -307 89.5 -467t261.5 -160q109 0 185 69.5t114 203.5t38 313q0 218 -44.5 361.5t-121.5 208.5t-179 65q-90 0 -154.5 -42t-107 -119.5t-62 -187.5t-19.5 -245z" />
<glyph unicode="R" horiz-adv-x="1272" d="M121 0v49q62 16 83 35.5t27.5 55.5t6.5 110v865q0 69 -5 100.5t-16.5 49t-30.5 28t-65 23.5v49h495q234 0 350 -85t116 -264q0 -137 -75.5 -233t-226.5 -150v-8q61 -25 104.5 -71.5t96.5 -144.5l90 -164q39 -72 67 -110t57 -58t77 -28v-49h-277q-38 53 -72 114t-67 124 l-88 167q-40 76 -65.5 112t-47 50.5t-46 20t-73.5 5.5h-110v-340q0 -72 5.5 -104.5t16.5 -49t30 -27t65 -23.5v-49h-422zM426 679h113q87 0 141 12.5t100 47.5t73.5 97.5t27.5 153.5q0 95 -32.5 158t-98.5 96t-178 33q-90 0 -146 -4v-594z" />
<glyph unicode="S" horiz-adv-x="1016" d="M112 37v274h100q20 -88 54 -139t88 -75.5t139 -24.5q117 0 179.5 61t62.5 178q0 75 -26 126t-85 96t-180 105q-117 58 -185 113.5t-101.5 120.5t-33.5 142q0 112 52.5 194.5t154 127.5t232.5 45q76 0 148.5 -8t181.5 -36v-270h-99q-23 88 -58 137t-82 68.5t-122 19.5 q-65 0 -116.5 -24t-81.5 -72.5t-30 -115.5q0 -71 25.5 -120t79.5 -91t160 -94q128 -64 198.5 -119t110 -125.5t39.5 -164.5q0 -105 -33 -177.5t-91.5 -118t-140 -66t-178.5 -20.5q-157 0 -362 53z" />
<glyph unicode="T" horiz-adv-x="1214" d="M66 1017v348h1082v-348h-98q-22 86 -43.5 136t-45.5 76t-51.5 37t-82.5 11h-127v-1024q0 -59 6.5 -94t20 -55.5t36.5 -32t72 -22.5v-49h-457v49q30 7 53 15t37.5 19.5t24 29.5t15 49t5.5 91v1024h-126q-47 0 -77.5 -9t-56.5 -37.5t-47.5 -81t-40.5 -132.5h-99z" />
<glyph unicode="U" horiz-adv-x="1327" d="M90 1316v49h420v-49q-56 -14 -78 -31.5t-30 -52.5t-8 -117v-708q0 -97 20.5 -163t57.5 -102.5t88 -53t127 -16.5q70 0 123 24.5t88.5 74.5t48.5 123t13 196v625q0 87 -8.5 119t-28 49t-80.5 33v49h399v-49q-58 -15 -79.5 -33t-29.5 -52t-8 -116v-643q0 -109 -20 -188 q-19 -75 -57 -133q-35 -52 -87 -88.5t-126 -57.5t-174 -21q-121 0 -207.5 27t-143 88.5t-81.5 145t-25 212.5v658q0 78 -5 105.5t-14.5 43.5t-27.5 27.5t-67 24.5z" />
<glyph unicode="V" horiz-adv-x="1236" d="M22 1316v49h452v-49q-46 -8 -70 -20t-36 -34t-12 -59q0 -34 8 -73.5t23 -88.5l234 -816l287 822q6 19 12 40t10.5 41t6 35t1.5 28q0 60 -27.5 87.5t-93.5 37.5v49h420v-49q-41 -10 -66 -29t-49.5 -61t-59.5 -134l-415 -1108h-131l-337 1115q-27 91 -47 129.5t-44 58 t-66 29.5z" />
<glyph unicode="W" horiz-adv-x="1887" d="M22 1316v49h428v-49q-62 -12 -86.5 -36t-24.5 -67q0 -35 9 -83t25 -109l201 -790l322 1134h168l261 -1135l236 763q43 139 43 198q0 61 -25.5 88t-84.5 37v49h394v-49q-30 -10 -48 -22.5t-34.5 -34t-36 -66.5t-45.5 -121l-364 -1079h-143l-276 1117l-320 -1117h-162 l-291 1086q-18 68 -33 111t-30 67.5t-32.5 37t-50.5 21.5z" />
<glyph unicode="X" horiz-adv-x="1170" d="M21 0v49q37 11 61 26.5t46 39.5t49 61t86 129l236 368l-282 464q-40 64 -60.5 93t-38 47t-31.5 25.5t-32 13.5v49h426v-49q-48 -7 -69 -26t-21 -52q0 -28 19 -70t54 -100l145 -243l143 231q32 52 48 83t22.5 52t6.5 43q0 31 -18 52.5t-60 29.5v49h371v-49 q-37 -12 -66.5 -35t-63 -67t-95.5 -139l-226 -350l254 -418q54 -89 77.5 -124.5t44 -60t44 -42.5t58.5 -31v-49h-439v49q46 8 68 25.5t22 52.5q0 28 -14.5 62t-44.5 84l-181 302l-191 -313q-48 -79 -48 -130q0 -33 18 -54t60 -29v-49h-378z" />
<glyph unicode="Y" horiz-adv-x="1168" d="M18 1316v49h426v-49q-94 -11 -94 -81q0 -29 13.5 -65t48.5 -102l200 -381l197 348q40 71 56.5 116.5t16.5 83.5q0 36 -21.5 56.5t-63.5 24.5v49h379v-49q-41 -15 -72 -41.5t-63 -71.5t-94 -152l-278 -474v-324q0 -57 6 -92t20 -56t37 -33t72 -23v-49h-457v49 q48 10 71 21.5t37 33t20.5 56.5t6.5 93v320l-276 513q-50 93 -76 133t-52 63t-60 34z" />
<glyph unicode="Z" horiz-adv-x="1101" d="M94 0v49l685 1224h-363q-39 0 -61.5 -6.5t-40.5 -20t-35.5 -39.5t-35 -71.5t-36.5 -113.5h-98v343h902v-48l-684 -1225h361q67 0 99.5 12.5t53.5 39t38 74.5t41 149h98v-367h-924z" />
<glyph unicode="[" horiz-adv-x="717" d="M228 -430v1861h446v-82h-270v-1697h270v-82h-446z" />
<glyph unicode="\" horiz-adv-x="1004" d="M63 1431h155l724 -1861h-156z" />
<glyph unicode="]" horiz-adv-x="717" d="M43 -348h270v1697h-270v82h446v-1861h-446v82z" />
<glyph unicode="^" d="M157 675l338 706h144l338 -706h-152l-258 569l-258 -569h-152z" />
<glyph unicode="_" horiz-adv-x="759" d="M0 -125h759v-116h-759v116z" />
<glyph unicode="`" horiz-adv-x="583" d="M63 1392v50h175l207 -320l-66 -52z" />
<glyph unicode="a" horiz-adv-x="1000" d="M80 220q0 146 144.5 225.5t433.5 92.5v65q0 104 -20 164t-63 88t-115 28q-78 0 -125.5 -41t-71.5 -123h-131v130q96 50 160 73.5t128 37t130 13.5q99 0 159 -31.5t90 -96.5t30 -196v-348q0 -74 1 -104.5t6 -56.5t15 -41.5t29.5 -26.5t63.5 -23v-49h-274l5 143l-15 4 q-87 -89 -163.5 -126t-162.5 -37q-76 0 -134 29.5t-89 83t-31 123.5zM253 245q0 -57 23 -90t58 -45.5t83 -12.5q68 0 123.5 33t86.5 84t31 101v141q-203 -2 -304 -54t-101 -157z" />
<glyph unicode="b" horiz-adv-x="1121" d="M48 1369v52l242 10h59v-632l4 -1q70 73 116.5 106t96 50.5t108.5 17.5q107 0 183.5 -54.5t118 -163.5t41.5 -267q0 -163 -49.5 -275.5t-146 -170t-228.5 -57.5q-74 0 -139.5 13.5t-137.5 47.5l-70 -61l-69 16v1087q0 96 -1.5 134t-8 64.5t-18 41.5t-31 24t-70.5 18z M349 360q0 -77 7 -122.5t23.5 -75.5t48 -55t70.5 -34.5t87 -9.5q120 0 182 98t62 294q0 198 -56.5 297.5t-170.5 99.5q-57 0 -97 -17.5t-79.5 -54.5t-58 -73t-18.5 -82v-265z" />
<glyph unicode="c" horiz-adv-x="903" d="M105 472q0 148 56 262.5t157 176.5t233 62q82 0 151.5 -9.5t139.5 -30.5v-209h-127q-17 65 -42 102.5t-58 52.5t-82 15q-70 0 -124 -45t-85.5 -137t-31.5 -225q0 -85 12 -155.5t41 -120.5t77 -78t119 -28q69 0 128.5 27t123.5 95l57 -66q-51 -56 -90 -86.5t-83.5 -51 t-88 -30t-94.5 -9.5q-189 0 -289 125.5t-100 362.5z" />
<glyph unicode="d" horiz-adv-x="1136" d="M105 468q0 164 58 278.5t156.5 170.5t221.5 56q66 0 120 -10.5t111 -34.5v159q0 96 -1.5 134t-8 64.5t-18 41.5t-31 24t-70.5 18v52l242 10h59v-1158q0 -78 3 -111.5t13 -53.5t31.5 -32.5t75.5 -23.5v-52l-236 -10h-60l12 164l-15 4q-63 -67 -109.5 -100.5t-99 -53.5 t-112.5 -20q-164 0 -253 124.5t-89 359.5zM293 496q0 -192 55 -292t167 -100q44 0 73 7.5t57 24t57 45.5t42.5 53t20.5 55t7 80v224q0 78 -7 125t-23.5 79t-44.5 54t-61.5 32t-80.5 10q-128 0 -195 -102.5t-67 -294.5z" />
<glyph unicode="e" horiz-adv-x="999" d="M104 472q0 149 53.5 263t152.5 176t228 62q101 0 172 -32t113.5 -87.5t66 -140t26.5 -220.5h-630v-18q0 -118 26.5 -198.5t87 -126t157.5 -45.5q82 0 147.5 30.5t130.5 99.5l61 -65q-64 -67 -117.5 -105t-117.5 -59.5t-141 -21.5q-206 0 -311 123.5t-105 364.5zM291 576 h437q-6 108 -27 176.5t-63 105t-110 36.5q-103 0 -164.5 -82.5t-72.5 -235.5z" />
<glyph unicode="f" horiz-adv-x="620" d="M79 855v51q38 6 50.5 9.5t24 10.5t20 20t15 38.5t10.5 71.5q9 109 39.5 177t89 116t125 67.5t156.5 19.5q79 0 134 -11v-181h-99q-19 59 -44.5 83.5t-71.5 24.5q-33 0 -55.5 -9t-41.5 -28t-32.5 -51t-20 -79.5t-6.5 -123.5v-105h239v-101h-239v-605q0 -67 6.5 -101 t19 -51.5t33 -28t65.5 -20.5v-49h-409v49q44 12 63 23t29.5 28t15.5 49t5 101v605h-121z" />
<glyph unicode="g" horiz-adv-x="1012" d="M63 -203q0 63 42 114.5t119 90.5q-47 19 -74 56t-27 87q0 57 32 104.5t113 108.5q-72 42 -109.5 114t-37.5 164q0 86 28.5 149.5t79 105t119.5 62t149 20.5q72 0 143 -17h354v-101l-185 7l-9 -11q31 -31 49 -84.5t18 -115.5q0 -163 -100.5 -251.5t-285.5 -88.5 q-83 0 -143 21q-76 -58 -76 -114q0 -37 14.5 -56t48 -27t101.5 -8h240q106 0 173 -33t95.5 -88.5t28.5 -129.5q0 -94 -54 -167.5t-156 -114.5t-238 -41q-101 0 -184.5 12t-143 40.5t-92 75t-32.5 116.5zM223 -193q0 -90 71.5 -132.5t218.5 -42.5q90 0 154.5 24t98.5 69 t34 105q0 28 -7 54.5t-26.5 47.5t-55.5 33.5t-94 12.5h-149q-81 0 -143 6q-51 -38 -76.5 -80.5t-25.5 -96.5zM300 652q0 -125 51 -193t147 -68q51 0 87 19.5t58.5 53.5t33 78.5t10.5 93.5q0 88 -25 147t-68 86.5t-99 27.5q-95 0 -145 -63t-50 -182z" />
<glyph unicode="h" horiz-adv-x="1130" d="M64 1369v52l241 10h60v-632l4 -1q78 79 123.5 110.5t90 47.5t95.5 16q55 0 98 -13t75.5 -39.5t53 -65t30.5 -92t10 -135.5v-377q0 -87 7.5 -118.5t27 -49t78.5 -33.5v-49h-394v49q39 12 56 21t28.5 25t18 49.5t6.5 101.5v262q0 133 -13.5 203.5t-53 105.5t-110.5 35 q-40 0 -72 -14t-74 -50t-63.5 -74t-21.5 -81v-383q0 -68 3.5 -97t13.5 -48.5t30.5 -32t63.5 -23.5v-49h-396v49q44 12 63 23t29.5 28t15.5 49t5 101v837q0 96 -1.5 134t-8 64.5t-18 41.5t-31 24t-70.5 18z" />
<glyph unicode="i" horiz-adv-x="569" d="M83 903v53l233 9h61v-715q0 -86 8 -119.5t30.5 -51t73.5 -30.5v-49h-392v49q39 12 55.5 21t28 25t18 49t6.5 103v436q0 64 -2 103t-14 62.5t-36.5 35t-69.5 19.5zM199 1154v194h184v-194h-184z" />
<glyph unicode="j" horiz-adv-x="545" d="M5 -355q62 24 94.5 45.5t53.5 50t32 76.5t11 123v743q0 78 -3 112t-13 53.5t-31 31.5t-76 23v53l234 9h61v-946q0 -140 -29 -224t-100.5 -142.5t-199.5 -95.5zM190 1154v194h183v-194h-183z" />
<glyph unicode="k" horiz-adv-x="1074" d="M63 1369v52l241 10h60v-874h32q33 0 54 7q25 9 55 30.5t85 72.5q46 43 69.5 73t32.5 55q8 21 8 42q0 30 -18.5 47t-60.5 23v49h431v-49q-46 -9 -98 -41t-107 -84l-230 -218l288 -376q50 -66 90.5 -97.5t88.5 -41.5v-49h-384v49q26 3 38.5 11.5t12.5 28.5q0 15 -5.5 29.5 t-22.5 39.5t-62 87l-119 160q-34 45 -48.5 59t-30.5 20t-43 6h-56v-240q0 -86 8 -119.5t30.5 -51t73.5 -30.5v-49h-397v49q50 13 69.5 27t28 33.5t12 53t3.5 87.5v837q0 96 -1.5 134t-8 64.5t-18 41.5t-31 24t-70.5 18z" />
<glyph unicode="l" horiz-adv-x="556" d="M63 1369v52l241 10h60v-1181q0 -86 8 -119.5t30.5 -51t73.5 -30.5v-49h-397v49q50 13 69.5 27t28 33.5t12 53t3.5 87.5v837q0 96 -1.5 134t-8 64.5t-18 41.5t-31 24t-70.5 18z" />
<glyph unicode="m" horiz-adv-x="1704" d="M83 903v53l234 9h61l-11 -163l14 -4q60 60 98.5 90.5t74.5 49t67.5 26.5t64.5 8q100 0 163 -46t87 -141q75 76 121.5 112t95 55.5t104.5 19.5q67 0 115.5 -19.5t82 -60t49 -101.5t15.5 -164v-377q0 -76 5 -105t14.5 -45t28.5 -27.5t64 -23.5v-49h-393v49q39 12 56 21 t28.5 25t18 49.5t6.5 101.5v262q0 85 -4.5 140.5t-14 88.5t-23 52t-30.5 33t-40 22t-61 8q-40 0 -74.5 -16t-75 -54t-58.5 -76.5t-18 -90.5v-365q0 -76 5 -105t14.5 -45t28.5 -27.5t64 -23.5v-49h-393v49q39 12 56 21t28.5 25t18 49.5t6.5 101.5v262q0 89 -5 145t-15.5 90 t-27 55t-33.5 32t-40 16.5t-52 5.5q-41 0 -77 -18.5t-73.5 -53.5t-56.5 -73t-19 -82v-375q0 -57 3 -87t9.5 -47t16.5 -27.5t28.5 -20t55.5 -19.5v-49h-392v49q38 12 54.5 21t28.5 25t18 49t6 103v436q0 64 -2 103t-14 62.5t-36.5 35t-69.5 19.5z" />
<glyph unicode="n" horiz-adv-x="1143" d="M83 903v53l234 9h61l-11 -163l14 -4q74 75 119.5 107t92 49.5t98.5 17.5q54 0 96.5 -12.5t75 -38.5t53.5 -64.5t31.5 -92.5t10.5 -137v-377q0 -69 4 -100t14 -48t29 -28.5t66 -24.5v-49h-394v49q39 12 56 21t28.5 25t18 49.5t6.5 101.5v262q0 70 -4 127t-13.5 93.5 t-23 57t-32 35t-42.5 23t-63 8.5t-74 -15.5t-77 -53.5t-61 -75t-19 -85v-373q0 -86 8 -119.5t30.5 -51t73.5 -30.5v-49h-392v49q39 12 55.5 21t28 25t18 49t6.5 103v436q0 64 -2 103t-14 62.5t-36.5 35t-69.5 19.5z" />
<glyph unicode="o" horiz-adv-x="1087" d="M105 469q0 165 57.5 279t157.5 169.5t228 55.5q214 0 324 -124.5t110 -357.5q0 -166 -55 -280t-156 -170.5t-239 -56.5q-208 0 -317.5 122.5t-109.5 362.5zM294 490q0 -206 65.5 -316.5t187.5 -110.5q67 0 114 32.5t76.5 87.5t42.5 127.5t13 151.5q0 147 -32.5 244 t-88.5 142.5t-128 45.5q-121 0 -185.5 -105t-64.5 -299z" />
<glyph unicode="p" horiz-adv-x="1139" d="M73 903v53l235 9h61l-13 -163l15 -4q62 63 98 91.5t74.5 47.5t74 27t75.5 8q165 0 253.5 -123.5t88.5 -361.5q0 -165 -50 -277.5t-145.5 -169t-227.5 -56.5q-74 0 -134 12.5t-110 33.5v-211q0 -65 4.5 -97t16 -50.5t33 -30.5t69.5 -22v-49h-408v49q36 10 58.5 20.5 t34.5 31t16 55.5t4 93v858q0 72 -2 102.5t-8 50.5t-17.5 33t-31 22t-64.5 18zM368 360q0 -96 12 -148t42.5 -84.5t72 -48.5t109.5 -16q121 0 182 100.5t61 296.5q0 392 -229 392q-56 0 -96.5 -17.5t-80.5 -56.5t-56.5 -75.5t-16.5 -78.5v-264z" />
<glyph unicode="q" horiz-adv-x="1120" d="M104 465q0 166 57.5 280.5t160.5 171t238 56.5q71 0 128 -14.5t117 -46.5l70 61l68 -16v-1138q0 -59 4.5 -93.5t16 -54.5t34 -31t58.5 -21v-49h-408v49q48 10 69.5 22t33 30.5t16 50t4.5 97.5v345q-54 -61 -100.5 -97.5t-103.5 -59.5t-121 -23q-165 0 -253.5 123 t-88.5 358zM292 496q0 -192 55.5 -292t166.5 -100q42 0 71.5 7.5t58 24.5t58 46t42.5 52.5t20 54.5t7 80v227q0 93 -12 144t-41 86.5t-68 51t-92 15.5q-129 0 -197.5 -104t-68.5 -293z" />
<glyph unicode="r" horiz-adv-x="847" d="M83 903v52l234 10h61l-11 -175l14 -3q55 67 102 105.5t101.5 59.5t123.5 21q58 0 105 -6v-230h-113q-24 54 -51 78.5t-74 24.5q-36 0 -71.5 -21t-68.5 -61t-45.5 -75t-12.5 -83v-350q0 -91 11 -125.5t36.5 -50.5t76.5 -25v-49h-403v49q38 12 54.5 21t28.5 25t18 49t6 103 v436q0 64 -2 103t-14 62.5t-36.5 35t-69.5 19.5z" />
<glyph unicode="s" horiz-adv-x="880" d="M94 29v209h98q27 -92 80 -133.5t146 -41.5q36 0 70.5 7.5t61.5 25t43 47.5t16 75q0 51 -20 83t-62 58.5t-148 71.5q-91 38 -146 74t-86.5 85t-31.5 116q0 82 44.5 142.5t128.5 92.5t197 32q66 0 127.5 -6.5t154.5 -25.5v-204h-96q-22 60 -52 94.5t-68 48.5t-93 14 q-80 0 -127.5 -37.5t-47.5 -102.5q0 -46 19 -76t59 -56t141 -69q102 -44 157.5 -81t87 -86t31.5 -117q0 -79 -27 -133t-76 -88t-116.5 -49t-147.5 -15q-84 0 -163 12.5t-154 32.5z" />
<glyph unicode="t" horiz-adv-x="693" d="M37 855v51q50 8 81 28t48.5 51.5t27.5 79t21 138.5h142v-247h323v-101h-323v-445q0 -97 8 -154.5t30 -90t50 -46.5t72 -14q40 0 75 16.5t69 47.5l45 -54q-71 -69 -134.5 -100t-131.5 -31q-129 0 -192 76.5t-63 239.5v555h-148z" />
<glyph unicode="u" horiz-adv-x="1131" d="M73 907v49h285v-509q0 -117 9 -178t27 -92t51 -52t91 -21q38 0 73 15t78 52.5t61.5 74.5t18.5 86v375q0 57 -3 86t-10 46.5t-16.5 28.5t-27 20t-56.5 19v49h285v-683q0 -77 3 -111t13 -54t31 -32.5t75 -23.5v-52l-229 -10h-61l6 164l-15 4q-83 -90 -158.5 -132 t-151.5 -42q-91 0 -150 36t-88 107.5t-29 201.5v378q0 84 -6.5 115.5t-25 50t-80.5 34.5z" />
<glyph unicode="v" horiz-adv-x="1032" d="M19 907v49h408v-49q-46 -11 -65 -21t-28.5 -26t-9.5 -43t6.5 -56.5t20.5 -68.5l174 -506l204 485q20 48 28 79t8 58q0 42 -22.5 64t-82.5 35v49h374v-49q-39 -8 -60 -24.5t-42 -52t-50 -99.5l-337 -741h-118l-271 747q-28 77 -44.5 105.5t-36 42.5t-56.5 22z" />
<glyph unicode="w" horiz-adv-x="1586" d="M29 907v49h395v-49q-58 -12 -78.5 -31.5t-20.5 -58.5q0 -27 6 -56.5t18 -68.5l157 -510l257 774h141l218 -774l176 489q14 38 23 72.5t9 64.5q0 42 -22.5 65t-76.5 34v49h349v-49q-28 -7 -42 -14.5t-27.5 -22t-30 -45t-41.5 -94.5l-289 -736h-135l-217 752l-262 -752 h-139l-240 742q-23 72 -38.5 101.5t-33 44t-56.5 24.5z" />
<glyph unicode="x" horiz-adv-x="990" d="M23 0v49q33 12 59.5 30t54 46.5t72.5 83.5l208 258l-213 292q-44 60 -70 87t-48 41t-44 20v49h392v-49q-79 -12 -79 -62q0 -23 10.5 -46t32.5 -51l122 -171l130 165q21 27 34 52.5t13 52.5q0 23 -17 38t-53 22v49h327v-49q-38 -11 -77.5 -43t-96.5 -103l-207 -254 l228 -307q49 -66 88 -101t78 -50v-49h-402v49q83 10 83 62q0 21 -7 40t-26 44l-145 202l-154 -200q-17 -22 -26.5 -40.5t-9.5 -41.5q0 -27 18.5 -44.5t58.5 -21.5v-49h-334z" />
<glyph unicode="y" horiz-adv-x="1032" d="M20 907v49h407v-49q-47 -11 -66 -21.5t-28 -27t-9 -42.5q0 -27 6.5 -56t20.5 -68l178 -501l200 480q17 40 26.5 73.5t9.5 62.5q0 43 -23.5 65t-81.5 35v49h374v-49q-39 -8 -60 -24.5t-42 -52t-50 -99.5l-362 -813q-55 -124 -107 -201t-114.5 -116t-148.5 -39 q-55 0 -124 13v198h89q12 -41 30 -57t52 -16q30 0 53.5 11.5t49 39.5t60 86t77.5 147l-280 753q-27 73 -43.5 102t-35.5 44t-58 24z" />
<glyph unicode="z" horiz-adv-x="931" d="M81 0v49l548 826h-271q-50 0 -79 -18t-55 -60t-50 -113h-87v272h758v-50l-547 -825h263q52 0 78 8t45 25.5t37 55.5t43 120h87v-290h-770z" />
<glyph unicode="{" horiz-adv-x="793" d="M95 458v82q80 0 125 20t68 69t23 139v289q0 134 39 213.5t129 119.5t245 40h26v-81q-79 0 -118.5 -8.5t-64 -25.5t-40.5 -44t-25 -75t-9 -127v-194q0 -101 -17.5 -168.5t-62.5 -117t-123 -81.5v-18q76 -31 122.5 -82t63.5 -119.5t17 -165.5v-194q0 -79 9 -127t25 -75 t40.5 -44t64 -25.5t118.5 -8.5v-81h-26q-155 0 -245 40t-129 119.5t-39 213.5v289q0 89 -22.5 138.5t-67.5 69.5t-126 20z" />
<glyph unicode="|" horiz-adv-x="648" d="M247 -430v1861h154v-1861h-154z" />
<glyph unicode="}" horiz-adv-x="793" d="M43 -351q79 0 118.5 8.5t64 25.5t40.5 44t25 75t9 127v194q0 101 17.5 168.5t62.5 117t123 81.5v18q-76 31 -122.5 82t-63.5 119.5t-17 165.5v194q0 79 -9 127t-25 75t-40.5 44t-64 25.5t-118.5 8.5v81h26q155 0 245 -40t129 -119.5t39 -213.5v-289q0 -90 23 -139t68 -69 t125 -20v-82q-81 0 -126 -20t-67.5 -69.5t-22.5 -138.5v-289q0 -134 -39 -213.5t-129 -119.5t-245 -40h-26v81z" />
<glyph unicode="~" d="M66 512q66 111 108 157t87.5 69.5t103.5 23.5q29 0 54 -6t49.5 -17.5t49.5 -29.5t77 -60q68 -57 107.5 -78t81.5 -21q36 0 62.5 14.5t53.5 48.5t72 112l96 -67q-63 -107 -104 -153t-87.5 -71.5t-104.5 -25.5q-37 0 -68 9t-65 28.5t-100 75.5q-54 44 -82 62.5t-54 27.5 t-53 9q-30 0 -53 -10.5t-44 -31.5t-41 -51.5t-50 -82.5z" />
<glyph unicode="&#xa1;" horiz-adv-x="585" d="M182 -409l65 949h97l49 -949h-211zM191 723v233h201v-233h-201zM585 -430z" />
<glyph unicode="&#xa2;" horiz-adv-x="903" d="M105 515q0 133 45.5 239.5t129 172.5t194.5 83v189h104v-183q143 -3 264 -40v-189h-127q-23 69 -55 105.5t-82 43.5v-789q59 6 109.5 34t105.5 89l57 -66q-75 -82 -140.5 -120t-131.5 -50v-190h-104v183q-181 7 -275 132.5t-94 355.5zM280 538q0 -183 48 -274.5 t146 -113.5v783q-92 -28 -143 -131t-51 -264zM903 972z" />
<glyph unicode="&#xa3;" horiz-adv-x="1082" d="M67 0v49q59 60 94.5 117t60 133.5t24.5 170.5v189h-165v116h165v150q0 126 29.5 209.5t92.5 140t146.5 81.5t191.5 25q131 0 255 -27v-216h-100q-18 60 -44 94.5t-64 49t-96 14.5q-77 0 -129.5 -41.5t-76.5 -118.5t-24 -231v-130h412v-116h-412v-63q0 -78 -7.5 -133 t-24 -98t-48.5 -96t-70 -99v-10h394q91 0 126 14t52.5 52t36.5 130h100l-50 -356h-869z" />
<glyph unicode="&#xa4;" horiz-adv-x="1114" d="M124 335l123 127q-70 97 -70 213q0 57 17.5 110t52.5 105l-123 123l94 94l126 -123q96 69 214 69q115 0 211 -69l127 126l94 -97l-123 -123q35 -52 52.5 -105t17.5 -110q0 -116 -70 -213l123 -127l-94 -95l-127 127q-89 -70 -211 -70q-124 0 -214 70l-126 -127zM320 675 q0 -69 29.5 -124t84 -87t124.5 -32q67 0 121 31.5t84.5 87t30.5 124.5q0 68 -30 123.5t-84 86.5t-122 31t-122.5 -31.5t-85 -86.5t-30.5 -123z" />
<glyph unicode="&#xa5;" horiz-adv-x="1248" d="M61 1316v49h418v-49q-94 -11 -94 -81q0 -29 13.5 -65t48.5 -102l202 -391l203 358q40 70 56.5 116t16.5 84q0 36 -21.5 56.5t-63.5 24.5v49h371v-49q-41 -15 -72 -41.5t-63 -71.5t-94 -152l-153 -260h292v-96h-348l-69 -118v-82h417v-96h-417v-146q0 -57 6 -92t20 -56 t37 -33t72 -23v-49h-449v49q48 10 71 21.5t37 33t20.5 56.5t6.5 93v146h-418v96h418v78l-66 122h-352v96h300l-158 295q-54 102 -82 142t-52 59t-54 29z" />
<glyph unicode="&#xa6;" horiz-adv-x="648" d="M247 353h154v-783h-154v783zM247 646v785h154v-785h-154z" />
<glyph unicode="&#xa7;" horiz-adv-x="1024" d="M88 623q0 88 59 162.5t175 131.5q-67 57 -98 116t-31 138q0 75 44 136t123.5 95t182.5 34q90 0 167.5 -14t172.5 -51v-218h-99q-30 99 -85.5 148.5t-151.5 49.5q-58 0 -101.5 -21t-66 -56.5t-22.5 -77.5q0 -54 22.5 -94t76.5 -83t173 -118q92 -58 147.5 -100t90.5 -83.5 t52.5 -89t17.5 -108.5q0 -67 -32 -121.5t-83.5 -96t-120.5 -76.5q65 -53 97.5 -110t32.5 -142q0 -88 -47.5 -153.5t-130.5 -100t-186 -34.5q-91 0 -182.5 17t-162.5 48v218h99q45 -198 242 -198q95 0 149.5 47t54.5 126q0 45 -12 76.5t-40.5 62t-75.5 64t-144 95.5 q-135 85 -193 137.5t-86 110t-28 133.5zM259 663q0 -50 14 -85.5t44 -69.5t75 -68t113 -76q85 -53 126 -83q61 32 97.5 85.5t36.5 113.5q0 41 -10 75t-38.5 69.5t-78.5 74t-119 80.5q-80 49 -127 83q-63 -33 -98 -86t-35 -113z" />
<glyph unicode="&#xa8;" horiz-adv-x="583" d="M38 1163v176h167v-176h-167zM377 1163v176h167v-176h-167z" />
<glyph unicode="&#xa9;" horiz-adv-x="1742" d="M110 622q0 163 58 305t164 244.5t244 156.5t295 54q159 0 299.5 -56t245 -160t160.5 -243.5t56 -300.5t-56 -300.5t-160.5 -243.5t-245 -160t-299.5 -56q-157 0 -295.5 54t-244 156.5t-163.5 244.5t-58 305zM235 622q0 -191 80.5 -342.5t226 -235.5t328.5 -84 q184 0 330 84.5t226.5 236.5t80.5 341q0 188 -80 340t-226.5 236.5t-330.5 84.5t-330.5 -85t-225.5 -236.5t-79 -339.5zM477 618q0 137 49 240.5t144 160.5t226 57q84 0 148 -13t125 -42v-188h-85q-23 65 -49.5 101t-61.5 51.5t-96 15.5q-69 0 -120.5 -41t-80 -123.5 t-28.5 -199.5q0 -80 12.5 -150.5t40.5 -124t72.5 -84t109.5 -30.5q80 0 126 40.5t76 136.5h85v-194q-76 -33 -146.5 -45.5t-163.5 -12.5q-189 0 -286 112.5t-97 332.5z" />
<glyph unicode="&#xaa;" horiz-adv-x="854" d="M110 877q0 103 103 156.5t312 62.5v32q0 66 -13 104.5t-42.5 57.5t-81.5 19q-49 0 -85 -27t-52 -80h-105v96q89 43 163.5 63t144.5 20q79 0 124.5 -25t64 -70.5t18.5 -124.5v-232q0 -73 4.5 -98.5t17.5 -40.5t60 -25v-41h-214l4 95l-7 5q-67 -64 -117.5 -87.5 t-113.5 -23.5q-85 0 -135 45t-50 119zM118 490v92h618v-92h-618zM245 892q0 -49 27 -72.5t85 -23.5q28 0 54.5 10t47 26t34.5 34t23 41t9 59v64q-141 -3 -210.5 -37t-69.5 -101z" />
<glyph unicode="&#xab;" horiz-adv-x="999" d="M100 455v74l349 393l64 -50l-241 -380l241 -379l-64 -50zM484 455v74l351 393l64 -50l-244 -380l244 -379l-64 -50z" />
<glyph unicode="&#xac;" d="M113 724v139h875v-569h-146v430h-729z" />
<glyph unicode="&#xae;" horiz-adv-x="1742" d="M110 622q0 163 58 305t164 244.5t244 156.5t295 54q159 0 299.5 -56t245 -160t160.5 -243.5t56 -300.5t-56 -300.5t-160.5 -243.5t-245 -160t-299.5 -56q-157 0 -295.5 54t-244 156.5t-163.5 244.5t-58 305zM235 622q0 -191 80.5 -342.5t226 -235.5t328.5 -84 q184 0 330 84.5t226.5 236.5t80.5 341q0 188 -80 340t-226.5 236.5t-330.5 84.5t-330.5 -85t-225.5 -236.5t-79 -339.5zM490 187v44q38 11 55.5 28t25 45t7.5 75v494q0 44 -7 72t-23 45t-58 30v44h407q110 0 179.5 -25t106 -75t36.5 -135q0 -80 -50.5 -136.5t-164.5 -94.5 l1 -11q42 -20 70.5 -51.5t55.5 -87.5l49 -103q15 -32 29.5 -53t28 -33.5t27 -17.5t37.5 -10v-44h-214q-41 70 -71 142l-47 110q-19 45 -37.5 70.5t-38.5 38t-43.5 15.5t-52.5 3h-72v-160q0 -59 7 -93t26 -52.5t67 -29.5v-44h-336zM726 641h104q119 0 174.5 44.5t55.5 132.5 q0 64 -26.5 101t-73.5 52.5t-115 15.5h-30q-38 0 -89 -3v-343z" />
<glyph unicode="&#xaf;" horiz-adv-x="583" d="M27 1188v125h528v-125h-528z" />
<glyph unicode="&#xb0;" horiz-adv-x="769" d="M84 1084q0 85 38.5 153.5t107.5 106t156 37.5q86 0 153.5 -38t105 -106t37.5 -154q0 -85 -39.5 -153.5t-109.5 -107.5t-157 -39t-153.5 39t-102.5 107.5t-36 154.5zM190 1083q0 -58 23.5 -103.5t68 -71t100.5 -25.5q57 0 101.5 25.5t68.5 71t24 103.5t-24 103t-68.5 70.5 t-101.5 25.5q-56 0 -100 -25.5t-68 -70.5t-24 -103z" />
<glyph unicode="&#xb1;" d="M124 26v139h886v-139h-886zM124 645v139h370v368h147v-368h369v-139h-369v-338h-147v338h-370z" />
<glyph unicode="&#xb2;" horiz-adv-x="834" d="M99 829v38q34 73 92 144t136 146q93 89 132 134.5t58 86t19 81.5q0 68 -38.5 107t-110.5 39q-62 0 -105.5 -33t-66.5 -97h-95v135q89 36 164 51.5t133 15.5q79 0 130.5 -17t82.5 -44.5t43.5 -64.5t12.5 -76q0 -49 -20 -91.5t-65.5 -92t-161.5 -154.5q-124 -113 -180 -195 h247q35 0 53.5 3.5t29.5 10.5t18.5 18t22.5 48h69l-14 -193h-586z" />
<glyph unicode="&#xb3;" horiz-adv-x="834" d="M115 861v146h91q21 -64 60.5 -93t105.5 -29q87 0 131.5 40t44.5 119q0 84 -59 128t-176 44h-60v71q94 3 157 28.5t91.5 66t28.5 92.5q0 61 -37 96t-107 35q-61 0 -104 -33t-66 -98l-91 -1v138q161 66 293 66q70 0 129.5 -19t95.5 -60t36 -103q0 -54 -24.5 -93.5 t-67 -68.5t-109.5 -57v-10q99 -16 159 -71.5t60 -134.5q0 -70 -36.5 -125t-111 -87t-181.5 -32q-68 0 -133 12t-120 33z" />
<glyph unicode="&#xb4;" horiz-adv-x="583" d="M139 1122l207 320h175v-50l-317 -322z" />
<glyph unicode="&#xb5;" horiz-adv-x="1114" d="M181 -401v1357h172v-551q0 -95 8 -152t31.5 -90.5t52.5 -46t78 -12.5q62 0 116.5 45.5t78.5 87.5t24 97v623h172v-750q0 -60 19 -88.5t53 -28.5q45 0 94 42l39 -60q-56 -46 -106 -66.5t-104 -20.5q-74 0 -115.5 44.5t-46.5 126.5l-9 3q-66 -71 -108.5 -103t-86 -48.5 t-93.5 -16.5q-38 0 -71 13.5t-65 44.5l-8 -6q7 -85 20.5 -176t30.5 -155v-55l-87 -58h-89zM1114 -430z" />
<glyph unicode="&#xb6;" horiz-adv-x="1204" d="M81 1019q0 96 33 162t91.5 107t139.5 59t178 18h606v-104h-201v-1691h-121v1691h-190v-1691h-121v1112q-130 0 -224 42t-142.5 118t-48.5 177z" />
<glyph unicode="&#xb7;" horiz-adv-x="506" d="M142 557v244h222v-244h-222z" />
<glyph unicode="&#xb8;" horiz-adv-x="583" d="M60 -356q65 8 104 30t54 51.5t15 71.5q0 26 -6 52v40l254 177l40 -29l-157 -117q10 -22 17 -53t7 -59q0 -103 -81.5 -165.5t-233.5 -72.5z" />
<glyph unicode="&#xb9;" horiz-adv-x="834" d="M126 1489l350 182h45q-1 -15 -2.5 -70.5t-1.5 -111.5v-482q0 -43 7.5 -61.5t24 -29t56 -16.5t126.5 -7v-64h-568v64q83 2 122 7.5t57 16t26.5 29t8.5 61.5v454q0 25 -9.5 36t-28.5 11q-21 0 -64.5 -22.5t-112.5 -65.5z" />
<glyph unicode="&#xba;" horiz-adv-x="876" d="M120 1041q0 112 42 189t115 114t165 37q86 0 146 -25t97.5 -68.5t54 -103t16.5 -128.5q0 -165 -85.5 -254t-240.5 -89q-152 0 -231 84t-79 244zM128 490v92h620v-92h-620zM267 1055q0 -135 44.5 -203.5t129.5 -68.5q82 0 125 67.5t43 186.5q0 97 -22.5 159t-60.5 88.5 t-87 26.5q-85 0 -128.5 -64.5t-43.5 -191.5z" />
<glyph unicode="&#xbb;" horiz-adv-x="999" d="M100 112l244 380l-244 379l64 50l351 -392v-74l-351 -393zM486 112l241 380l-241 379l64 50l349 -392v-74l-349 -393z" />
<glyph unicode="&#xbc;" horiz-adv-x="1772" d="M126 1193l350 182h45q-1 -15 -2.5 -70.5t-1.5 -111.5v-482q0 -33 3.5 -50.5t14 -29t31.5 -19t53.5 -11t96.5 -4.5v-64h-553v64q83 2 122 7.5t57 16t26.5 29t8.5 61.5v454q0 25 -9.5 36t-28.5 11q-21 0 -64.5 -22.5t-112.5 -65.5zM397 -96l884 1461h145l-882 -1461h-147z M996 148v54l405 539h116v-517h12q39 0 56.5 6.5t29 22.5t20.5 49h63l-9 -154h-172v-77q0 -54 7 -75t24 -30.5t56 -16.5v-45h-308v45q44 8 59 18t21.5 30.5t6.5 73.5v77h-387zM1127 224h256v119q0 44 2 115.5t6 120.5h-9l-255 -347v-8z" />
<glyph unicode="&#xbd;" horiz-adv-x="1822" d="M126 1193l350 182h45q-1 -15 -2.5 -70.5t-1.5 -111.5v-482q0 -33 3.5 -50.5t14 -29t31.5 -19t53.5 -11t96.5 -4.5v-64h-553v64q83 2 122 7.5t57 16t26.5 29t8.5 61.5v454q0 25 -9.5 36t-28.5 11q-21 0 -64.5 -22.5t-112.5 -65.5zM397 -96l884 1461h145l-882 -1461h-147z M1087 -58q34 73 92 144t136 146q93 89 132 134.5t58 86t19 81.5q0 68 -38.5 107t-110.5 39q-62 0 -105.5 -33t-66.5 -97h-95v135q89 36 164 51.5t133 15.5q79 0 130.5 -17t82.5 -44.5t43.5 -64.5t12.5 -76q0 -49 -20 -91.5t-65.5 -92t-161.5 -154.5q-124 -113 -180 -195h247 q35 0 53.5 3.5t29.5 10.5t18.5 18t22.5 48h69l-14 -193h-586v38z" />
<glyph unicode="&#xbe;" horiz-adv-x="1772" d="M110 565v146h91q21 -64 60.5 -93t105.5 -29q87 0 131.5 40t44.5 119q0 84 -59 128t-176 44h-60v71q94 3 157 28.5t91.5 66t28.5 92.5q0 61 -37 96t-107 35q-61 0 -104 -33t-66 -98l-91 -1v138q161 66 293 66q70 0 129.5 -19t95.5 -60t36 -103q0 -54 -24.5 -93.5 t-67 -68.5t-109.5 -57v-10q99 -16 159 -71.5t60 -134.5q0 -70 -36.5 -125t-111 -87t-181.5 -32q-68 0 -133 12t-120 33zM392 -96l884 1461h145l-882 -1461h-147zM991 148v54l405 539h116v-517h12q39 0 56.5 6.5t29 22.5t20.5 49h63l-9 -154h-172v-77q0 -54 7 -75t24 -30.5 t56 -16.5v-45h-308v45q44 8 59 18t21.5 30.5t6.5 73.5v77h-387zM1122 224h256v119q0 44 2 115.5t6 120.5h-9l-255 -347v-8z" />
<glyph unicode="&#xbf;" horiz-adv-x="865" d="M75 -148q0 41 7.5 75.5t22.5 67.5t38 67.5t51.5 69.5t99.5 118q53 62 77 99.5t34 73t10 92.5v25h134v-34q0 -41 -5 -66t-17.5 -53.5t-39 -67.5t-75.5 -100q-58 -74 -83.5 -120t-38.5 -95.5t-13 -110.5q0 -114 45.5 -176t122.5 -62t125 46t67 142h136v-164 q-114 -58 -193.5 -81t-156.5 -23q-120 0 -198 35.5t-114 97.5t-36 144zM380 724v232h200v-232h-200z" />
<glyph unicode="&#xc0;" horiz-adv-x="1276" d="M6 0v49q56 9 97.5 65t80.5 160l417 1107h158l340 -1115q24 -78 42.5 -119t44.5 -64t71 -34v-49h-461v49q50 10 74.5 22t36.5 33.5t12 57.5q0 34 -8 73.5t-23 88.5l-37 129h-466l-34 -98q-26 -74 -34 -112t-8 -69q0 -60 30.5 -88t93.5 -37v-49h-427zM394 1732v50h198 l241 -257l-56 -57zM412 540h418l-190 645z" />
<glyph unicode="&#xc1;" horiz-adv-x="1276" d="M6 0v49q56 9 97.5 65t80.5 160l417 1107h158l340 -1115q24 -78 42.5 -119t44.5 -64t71 -34v-49h-461v49q50 10 74.5 22t36.5 33.5t12 57.5q0 34 -8 73.5t-23 88.5l-37 129h-466l-34 -98q-26 -74 -34 -112t-8 -69q0 -60 30.5 -88t93.5 -37v-49h-427zM412 540h418l-190 645 zM518 1525l241 257h197v-50l-382 -264z" />
<glyph unicode="&#xc2;" horiz-adv-x="1276" d="M6 0v49q56 9 97.5 65t80.5 160l417 1107h158l340 -1115q24 -78 42.5 -119t44.5 -64t71 -34v-49h-461v49q50 10 74.5 22t36.5 33.5t12 57.5q0 34 -8 73.5t-23 88.5l-37 129h-466l-34 -98q-26 -74 -34 -112t-8 -69q0 -60 30.5 -88t93.5 -37v-49h-427zM374 1526l240 254h134 l228 -254l-57 -58l-238 185h-11l-240 -185zM412 540h418l-190 645z" />
<glyph unicode="&#xc3;" horiz-adv-x="1276" d="M6 0v49q56 9 97.5 65t80.5 160l417 1107h158l340 -1115q24 -78 42.5 -119t44.5 -64t71 -34v-49h-461v49q50 10 74.5 22t36.5 33.5t12 57.5q0 34 -8 73.5t-23 88.5l-37 129h-466l-34 -98q-26 -74 -34 -112t-8 -69q0 -60 30.5 -88t93.5 -37v-49h-427zM344 1514 q48 96 78 133.5t61.5 54t75.5 16.5q24 0 43.5 -5.5t36 -14.5t56.5 -36q29 -20 46 -31t35 -17.5t41 -6.5q32 0 57 24.5t54 86.5l78 -34q-38 -82 -72.5 -126.5t-66 -61t-71.5 -16.5q-27 0 -47 5.5t-39.5 16t-60.5 38.5q-27 18 -42.5 28t-32.5 16.5t-36 6.5q-26 0 -43.5 -10 t-35.5 -35t-37 -66zM412 540h418l-190 645z" />
<glyph unicode="&#xc4;" horiz-adv-x="1276" d="M6 0v49q56 9 97.5 65t80.5 160l417 1107h158l340 -1115q24 -78 42.5 -119t44.5 -64t71 -34v-49h-461v49q50 10 74.5 22t36.5 33.5t12 57.5q0 34 -8 73.5t-23 88.5l-37 129h-466l-34 -98q-26 -74 -34 -112t-8 -69q0 -60 30.5 -88t93.5 -37v-49h-427zM407 1514v176h167 v-176h-167zM412 540h418l-190 645zM776 1514v176h167v-176h-167z" />
<glyph unicode="&#xc5;" horiz-adv-x="1276" d="M6 0v49q56 9 97.5 65t80.5 160l417 1107h158l340 -1115q24 -78 42.5 -119t44.5 -64t71 -34v-49h-461v49q50 10 74.5 22t36.5 33.5t12 57.5q0 34 -8 73.5t-23 88.5l-37 129h-466l-34 -98q-26 -74 -34 -112t-8 -69q0 -60 30.5 -88t93.5 -37v-49h-427zM412 540h418l-190 645 zM448 1621q0 66 29.5 112.5t81.5 69t118 22.5q110 0 167 -50t57 -145q0 -99 -60.5 -152.5t-171.5 -53.5q-108 0 -164.5 50t-56.5 147zM553 1628q0 -67 31 -104.5t93 -37.5q58 0 88.5 35t30.5 98q0 70 -32.5 107t-88.5 37q-60 0 -91 -35t-31 -100z" />
<glyph unicode="&#xc6;" horiz-adv-x="1774" d="M0 0v49q59 21 105.5 74t96.5 150l568 1092h882v-302h-98q-15 49 -31 86t-33 62t-37.5 40t-48.5 20.5t-67 5.5h-342l32 -524h208q44 0 69 12.5t41.5 42.5t31.5 94h94v-384h-94q-14 60 -31 90.5t-40.5 43.5t-70.5 13h-202l39 -577h260q49 0 79.5 8.5t52.5 29t39 53.5 t28.5 68.5t31.5 103.5h99l-19 -351h-883v49q47 10 71 25.5t35.5 43t11.5 75.5q0 30 -2 57l-14 203h-430l-51 -98q-14 -27 -35.5 -73.5t-29 -73t-7.5 -46.5q0 -59 24.5 -82t81.5 -31v-49h-415zM472 540h385l-30 501l-4 98q-1 43 -1 72h-10z" />
<glyph unicode="&#xc7;" horiz-adv-x="1152" d="M119 669q0 214 67.5 375t198.5 249t313 88q91 0 168 -9.5t176 -35.5v-277h-99q-24 87 -61 138.5t-86 73.5t-118 22q-103 0 -183.5 -68.5t-126.5 -206t-46 -332.5q0 -196 38 -334.5t112 -209t182 -70.5q82 0 134 23.5t87.5 74.5t67.5 150h99v-286q-132 -34 -277 -45 l-91 -69q10 -22 17 -53t7 -59q0 -103 -81.5 -165.5t-233.5 -72.5l-13 74q65 8 104 30t54 51.5t15 71.5q0 26 -6 52v40l137 96q-10 -1 -20 -1h-21q-254 0 -384 172t-130 513z" />
<glyph unicode="&#xc8;" horiz-adv-x="1178" d="M121 0v49q62 16 83 35.5t27.5 55.5t6.5 110v865q0 69 -5 100.5t-16.5 49t-30.5 28t-65 23.5v49h935v-302h-98q-15 49 -31 86t-33 62t-37.5 40t-48.5 20.5t-67 5.5h-316v-524h214q44 0 69 12.5t41.5 42.5t31.5 94h94v-384h-94q-14 60 -31 90.5t-40.5 43.5t-70.5 13h-214 v-577h311q49 0 79.5 8.5t52.5 29t39 53.5t28.5 68.5t31.5 103.5h99l-19 -351h-926zM324 1732v50h198l241 -257l-56 -57z" />
<glyph unicode="&#xc9;" horiz-adv-x="1178" d="M121 0v49q62 16 83 35.5t27.5 55.5t6.5 110v865q0 69 -5 100.5t-16.5 49t-30.5 28t-65 23.5v49h935v-302h-98q-15 49 -31 86t-33 62t-37.5 40t-48.5 20.5t-67 5.5h-316v-524h214q44 0 69 12.5t41.5 42.5t31.5 94h94v-384h-94q-14 60 -31 90.5t-40.5 43.5t-70.5 13h-214 v-577h311q49 0 79.5 8.5t52.5 29t39 53.5t28.5 68.5t31.5 103.5h99l-19 -351h-926zM452 1525l241 257h197v-50l-382 -264z" />
<glyph unicode="&#xca;" horiz-adv-x="1178" d="M121 0v49q62 16 83 35.5t27.5 55.5t6.5 110v865q0 69 -5 100.5t-16.5 49t-30.5 28t-65 23.5v49h935v-302h-98q-15 49 -31 86t-33 62t-37.5 40t-48.5 20.5t-67 5.5h-316v-524h214q44 0 69 12.5t41.5 42.5t31.5 94h94v-384h-94q-14 60 -31 90.5t-40.5 43.5t-70.5 13h-214 v-577h311q49 0 79.5 8.5t52.5 29t39 53.5t28.5 68.5t31.5 103.5h99l-19 -351h-926zM308 1526l240 254h134l228 -254l-57 -58l-238 185h-11l-240 -185z" />
<glyph unicode="&#xcb;" horiz-adv-x="1178" d="M121 0v49q62 16 83 35.5t27.5 55.5t6.5 110v865q0 69 -5 100.5t-16.5 49t-30.5 28t-65 23.5v49h935v-302h-98q-15 49 -31 86t-33 62t-37.5 40t-48.5 20.5t-67 5.5h-316v-524h214q44 0 69 12.5t41.5 42.5t31.5 94h94v-384h-94q-14 60 -31 90.5t-40.5 43.5t-70.5 13h-214 v-577h311q49 0 79.5 8.5t52.5 29t39 53.5t28.5 68.5t31.5 103.5h99l-19 -351h-926zM341 1514v176h167v-176h-167zM710 1514v176h167v-176h-167z" />
<glyph unicode="&#xcc;" horiz-adv-x="664" d="M51 1732v50h198l241 -257l-56 -57zM121 0v49q62 16 83 35.5t27.5 55.5t6.5 110v865q0 69 -5 100.5t-16.5 49t-30.5 28t-65 23.5v49h422v-49q-44 -11 -63.5 -22t-31 -27.5t-17 -49.5t-5.5 -102v-865q0 -67 4.5 -98t15 -49t31 -30t66.5 -24v-49h-422z" />
<glyph unicode="&#xcd;" horiz-adv-x="664" d="M121 0v49q62 16 83 35.5t27.5 55.5t6.5 110v865q0 69 -5 100.5t-16.5 49t-30.5 28t-65 23.5v49h422v-49q-44 -11 -63.5 -22t-31 -27.5t-17 -49.5t-5.5 -102v-865q0 -67 4.5 -98t15 -49t31 -30t66.5 -24v-49h-422zM175 1525l241 257h197v-50l-382 -264z" />
<glyph unicode="&#xce;" horiz-adv-x="664" d="M31 1526l240 254h134l228 -254l-57 -58l-238 185h-11l-240 -185zM121 0v49q62 16 83 35.5t27.5 55.5t6.5 110v865q0 69 -5 100.5t-16.5 49t-30.5 28t-65 23.5v49h422v-49q-44 -11 -63.5 -22t-31 -27.5t-17 -49.5t-5.5 -102v-865q0 -67 4.5 -98t15 -49t31 -30t66.5 -24 v-49h-422z" />
<glyph unicode="&#xcf;" horiz-adv-x="664" d="M64 1514v176h167v-176h-167zM121 0v49q62 16 83 35.5t27.5 55.5t6.5 110v865q0 69 -5 100.5t-16.5 49t-30.5 28t-65 23.5v49h422v-49q-44 -11 -63.5 -22t-31 -27.5t-17 -49.5t-5.5 -102v-865q0 -67 4.5 -98t15 -49t31 -30t66.5 -24v-49h-422zM433 1514v176h167v-176h-167 z" />
<glyph unicode="&#xd0;" horiz-adv-x="1361" d="M50 669v92h194v354q0 70 -5 101.5t-16.5 48.5t-30.5 27.5t-66 23.5v49h437q187 0 307.5 -41t204.5 -121.5t125.5 -201.5t41.5 -289q0 -169 -38.5 -297.5t-112.5 -215.5q-64 -76 -157 -125q-77 -40 -178 -57t-268 -17h-362v49q46 12 66 23t31 28t16 49t5 101v419h-194z M431 93q40 -4 118 -4q170 0 271 57.5t159.5 189t58.5 358.5q0 203 -58.5 333.5t-165 190.5t-254.5 60q-68 0 -129 -4v-513h320v-92h-320v-576z" />
<glyph unicode="&#xd1;" horiz-adv-x="1394" d="M117 0v49q62 16 83 35.5t27.5 55.5t6.5 110v865q0 69 -5 100.5t-16.5 49t-30.5 28t-65 23.5v49h313l494 -824q36 -60 60.5 -105t50.5 -101h13q-5 61 -9 242.5t-4 327.5v210q0 69 -4 101t-14.5 49t-29 27.5t-64.5 23.5v49h360v-49q-45 -12 -63.5 -22t-30 -26t-17.5 -48 t-6 -105v-1121h-125l-557 934q-52 87 -74 127t-41 79h-17q7 -77 10 -278.5t3 -401.5v-204q0 -67 4.5 -98t15 -49t31 -30t66.5 -24v-49h-365zM389 1514q48 96 78 133.5t61.5 54t75.5 16.5q24 0 43.5 -5.5t36 -14.5t56.5 -36q29 -20 46 -31t35 -17.5t41 -6.5q32 0 57 24.5 t54 86.5l78 -34q-38 -82 -72.5 -126.5t-66 -61t-71.5 -16.5q-27 0 -47 5.5t-39.5 16t-60.5 38.5q-27 18 -42.5 28t-32.5 16.5t-36 6.5q-26 0 -43.5 -10t-35.5 -35t-37 -66z" />
<glyph unicode="&#xd2;" horiz-adv-x="1338" d="M119 671q0 223 68 383t194.5 243.5t293.5 83.5q178 0 299.5 -78.5t183 -231t61.5 -371.5q0 -234 -70 -395t-197.5 -241t-297.5 -80q-120 0 -218.5 39.5t-169 123t-109 213.5t-38.5 311zM325 699q0 -307 89.5 -467t261.5 -160q109 0 185 69.5t114 203.5t38 313 q0 218 -44.5 361.5t-121.5 208.5t-179 65q-90 0 -154.5 -42t-107 -119.5t-62 -187.5t-19.5 -245zM388 1732v50h198l241 -257l-56 -57z" />
<glyph unicode="&#xd3;" horiz-adv-x="1338" d="M119 671q0 223 68 383t194.5 243.5t293.5 83.5q178 0 299.5 -78.5t183 -231t61.5 -371.5q0 -234 -70 -395t-197.5 -241t-297.5 -80q-120 0 -218.5 39.5t-169 123t-109 213.5t-38.5 311zM325 699q0 -307 89.5 -467t261.5 -160q109 0 185 69.5t114 203.5t38 313 q0 218 -44.5 361.5t-121.5 208.5t-179 65q-90 0 -154.5 -42t-107 -119.5t-62 -187.5t-19.5 -245zM512 1525l241 257h197v-50l-382 -264z" />
<glyph unicode="&#xd4;" horiz-adv-x="1338" d="M119 671q0 223 68 383t194.5 243.5t293.5 83.5q178 0 299.5 -78.5t183 -231t61.5 -371.5q0 -234 -70 -395t-197.5 -241t-297.5 -80q-120 0 -218.5 39.5t-169 123t-109 213.5t-38.5 311zM325 699q0 -307 89.5 -467t261.5 -160q109 0 185 69.5t114 203.5t38 313 q0 218 -44.5 361.5t-121.5 208.5t-179 65q-90 0 -154.5 -42t-107 -119.5t-62 -187.5t-19.5 -245zM368 1526l240 254h134l228 -254l-57 -58l-238 185h-11l-240 -185z" />
<glyph unicode="&#xd5;" horiz-adv-x="1338" d="M119 671q0 223 68 383t194.5 243.5t293.5 83.5q178 0 299.5 -78.5t183 -231t61.5 -371.5q0 -234 -70 -395t-197.5 -241t-297.5 -80q-120 0 -218.5 39.5t-169 123t-109 213.5t-38.5 311zM325 699q0 -307 89.5 -467t261.5 -160q109 0 185 69.5t114 203.5t38 313 q0 218 -44.5 361.5t-121.5 208.5t-179 65q-90 0 -154.5 -42t-107 -119.5t-62 -187.5t-19.5 -245zM338 1514q48 96 78 133.5t61.5 54t75.5 16.5q24 0 43.5 -5.5t36 -14.5t56.5 -36q29 -20 46 -31t35 -17.5t41 -6.5q32 0 57 24.5t54 86.5l78 -34q-38 -82 -72.5 -126.5t-66 -61 t-71.5 -16.5q-27 0 -47 5.5t-39.5 16t-60.5 38.5q-27 18 -42.5 28t-32.5 16.5t-36 6.5q-26 0 -43.5 -10t-35.5 -35t-37 -66z" />
<glyph unicode="&#xd6;" horiz-adv-x="1338" d="M119 671q0 223 68 383t194.5 243.5t293.5 83.5q178 0 299.5 -78.5t183 -231t61.5 -371.5q0 -234 -70 -395t-197.5 -241t-297.5 -80q-120 0 -218.5 39.5t-169 123t-109 213.5t-38.5 311zM325 699q0 -307 89.5 -467t261.5 -160q109 0 185 69.5t114 203.5t38 313 q0 218 -44.5 361.5t-121.5 208.5t-179 65q-90 0 -154.5 -42t-107 -119.5t-62 -187.5t-19.5 -245zM401 1514v176h167v-176h-167zM770 1514v176h167v-176h-167z" />
<glyph unicode="&#xd7;" d="M168 287l301 298l-301 298l101 101l298 -301l298 301l101 -100l-301 -299l301 -298l-101 -101l-298 302l-298 -302z" />
<glyph unicode="&#xd8;" horiz-adv-x="1338" d="M101 -135l169 277q-72 83 -111.5 214.5t-39.5 314.5q0 223 68 383t194.5 243.5t293.5 83.5q93 0 166.5 -21.5t136.5 -63.5l121 203h138l-170 -277q74 -86 113 -216.5t39 -305.5q0 -234 -70 -395t-197.5 -241t-297.5 -80q-175 0 -297 83l-119 -202h-137zM325 699 q0 -235 54 -389l520 859q-45 64 -103.5 94t-127.5 30q-90 0 -154.5 -42t-107 -119.5t-62 -187.5t-19.5 -245zM438 195q87 -123 238 -123q109 0 185 69.5t114 203.5t38 313q0 238 -55 395z" />
<glyph unicode="&#xd9;" horiz-adv-x="1327" d="M90 1316v49h420v-49q-56 -14 -78 -31.5t-30 -52.5t-8 -117v-708q0 -97 20.5 -163t57.5 -102.5t88 -53t127 -16.5q70 0 123 24.5t88.5 74.5t48.5 123t13 196v625q0 87 -8.5 119t-28 49t-80.5 33v49h399v-49q-58 -15 -79.5 -33t-29.5 -52t-8 -116v-643q0 -109 -20 -188 q-19 -75 -57 -133q-35 -52 -87 -88.5t-126 -57.5t-174 -21q-121 0 -207.5 27t-143 88.5t-81.5 145t-25 212.5v658q0 78 -5 105.5t-14.5 43.5t-27.5 27.5t-67 24.5zM377 1732v50h198l241 -257l-56 -57z" />
<glyph unicode="&#xda;" horiz-adv-x="1327" d="M90 1316v49h420v-49q-56 -14 -78 -31.5t-30 -52.5t-8 -117v-708q0 -97 20.5 -163t57.5 -102.5t88 -53t127 -16.5q70 0 123 24.5t88.5 74.5t48.5 123t13 196v625q0 87 -8.5 119t-28 49t-80.5 33v49h399v-49q-58 -15 -79.5 -33t-29.5 -52t-8 -116v-643q0 -109 -20 -188 q-19 -75 -57 -133q-35 -52 -87 -88.5t-126 -57.5t-174 -21q-121 0 -207.5 27t-143 88.5t-81.5 145t-25 212.5v658q0 78 -5 105.5t-14.5 43.5t-27.5 27.5t-67 24.5zM556 1525l241 257h197v-50l-382 -264z" />
<glyph unicode="&#xdb;" horiz-adv-x="1327" d="M90 1316v49h420v-49q-56 -14 -78 -31.5t-30 -52.5t-8 -117v-708q0 -97 20.5 -163t57.5 -102.5t88 -53t127 -16.5q70 0 123 24.5t88.5 74.5t48.5 123t13 196v625q0 87 -8.5 119t-28 49t-80.5 33v49h399v-49q-58 -15 -79.5 -33t-29.5 -52t-8 -116v-643q0 -109 -20 -188 q-19 -75 -57 -133q-35 -52 -87 -88.5t-126 -57.5t-174 -21q-121 0 -207.5 27t-143 88.5t-81.5 145t-25 212.5v658q0 78 -5 105.5t-14.5 43.5t-27.5 27.5t-67 24.5zM382 1526l240 254h134l228 -254l-57 -58l-238 185h-11l-240 -185z" />
<glyph unicode="&#xdc;" horiz-adv-x="1327" d="M90 1316v49h420v-49q-56 -14 -78 -31.5t-30 -52.5t-8 -117v-708q0 -97 20.5 -163t57.5 -102.5t88 -53t127 -16.5q70 0 123 24.5t88.5 74.5t48.5 123t13 196v625q0 87 -8.5 119t-28 49t-80.5 33v49h399v-49q-58 -15 -79.5 -33t-29.5 -52t-8 -116v-643q0 -109 -20 -188 q-19 -75 -57 -133q-35 -52 -87 -88.5t-126 -57.5t-174 -21q-121 0 -207.5 27t-143 88.5t-81.5 145t-25 212.5v658q0 78 -5 105.5t-14.5 43.5t-27.5 27.5t-67 24.5zM415 1514v176h167v-176h-167zM784 1514v176h167v-176h-167z" />
<glyph unicode="&#xdd;" horiz-adv-x="1168" d="M18 1316v49h426v-49q-94 -11 -94 -81q0 -29 13.5 -65t48.5 -102l200 -381l197 348q40 71 56.5 116.5t16.5 83.5q0 36 -21.5 56.5t-63.5 24.5v49h379v-49q-41 -15 -72 -41.5t-63 -71.5t-94 -152l-278 -474v-324q0 -57 6 -92t20 -56t37 -33t72 -23v-49h-457v49 q48 10 71 21.5t37 33t20.5 56.5t6.5 93v320l-276 513q-50 93 -76 133t-52 63t-60 34zM497 1525l241 257h197v-50l-382 -264z" />
<glyph unicode="&#xde;" horiz-adv-x="1175" d="M121 0v49q62 16 83 35.5t27.5 55.5t6.5 110v865q0 69 -5 100.5t-16.5 49t-30.5 28t-65 23.5v49h421v-49q-45 -12 -63.5 -22t-30 -26t-17.5 -48t-6 -105v-7h197q234 0 348.5 -89.5t114.5 -272.5q0 -104 -36 -187t-102 -136t-156 -76t-189 -23q-95 0 -177 4v-75 q0 -59 6.5 -94t20 -55.5t36.5 -32t72 -22.5v-49h-439zM425 411h121q113 0 186.5 29.5t112.5 98t39 181.5q0 86 -23 143.5t-63.5 92.5t-96.5 49.5t-122 14.5q-85 0 -154 -4v-605z" />
<glyph unicode="&#xdf;" horiz-adv-x="1240" d="M79 855v51q62 7 90 31.5t34 79.5q10 92 43 169t95.5 133t149.5 86.5t200 30.5q159 0 247 -70t88 -198q0 -51 -17 -93t-56.5 -85t-145.5 -123q-39 -31 -59 -50.5t-31.5 -41.5t-11.5 -46q0 -41 17 -67.5t56 -51.5t114 -57q103 -44 157.5 -80.5t86.5 -86t32 -117.5 q0 -79 -27 -133t-75.5 -88t-115 -49t-144.5 -15q-136 0 -277 40v176h92q21 -51 45 -79t59 -43t86 -15q36 0 70 7.5t60 25t42 47.5t16 75q0 27 -5.5 48.5t-16.5 38.5t-26 30.5t-33 25t-50.5 27t-98.5 43.5q-73 31 -118.5 65t-69.5 78.5t-24 105.5q0 63 36.5 113.5 t122.5 116.5q58 45 87.5 80.5t44.5 76t15 92.5q0 56 -16 93.5t-43 60.5t-62.5 33t-73.5 10q-59 0 -105.5 -17t-84.5 -55t-61.5 -97.5t-34 -144.5t-10.5 -221v-821h-285v49q44 12 63 23t29.5 28t15.5 49t5 101v605h-121z" />
<glyph unicode="&#xe0;" horiz-adv-x="1000" d="M80 220q0 146 144.5 225.5t433.5 92.5v65q0 104 -20 164t-63 88t-115 28q-78 0 -125.5 -41t-71.5 -123h-131v130q96 50 160 73.5t128 37t130 13.5q99 0 159 -31.5t90 -96.5t30 -196v-348q0 -74 1 -104.5t6 -56.5t15 -41.5t29.5 -26.5t63.5 -23v-49h-274l5 143l-15 4 q-87 -89 -163.5 -126t-162.5 -37q-76 0 -134 29.5t-89 83t-31 123.5zM237 1392v50h175l207 -320l-66 -52zM253 245q0 -57 23 -90t58 -45.5t83 -12.5q68 0 123.5 33t86.5 84t31 101v141q-203 -2 -304 -54t-101 -157z" />
<glyph unicode="&#xe1;" horiz-adv-x="1000" d="M80 220q0 146 144.5 225.5t433.5 92.5v65q0 104 -20 164t-63 88t-115 28q-78 0 -125.5 -41t-71.5 -123h-131v130q96 50 160 73.5t128 37t130 13.5q99 0 159 -31.5t90 -96.5t30 -196v-348q0 -74 1 -104.5t6 -56.5t15 -41.5t29.5 -26.5t63.5 -23v-49h-274l5 143l-15 4 q-87 -89 -163.5 -126t-162.5 -37q-76 0 -134 29.5t-89 83t-31 123.5zM253 245q0 -57 23 -90t58 -45.5t83 -12.5q68 0 123.5 33t86.5 84t31 101v141q-203 -2 -304 -54t-101 -157zM361 1122l207 320h175v-50l-317 -322z" />
<glyph unicode="&#xe2;" horiz-adv-x="1000" d="M80 220q0 146 144.5 225.5t433.5 92.5v65q0 104 -20 164t-63 88t-115 28q-78 0 -125.5 -41t-71.5 -123h-131v130q96 50 160 73.5t128 37t130 13.5q99 0 159 -31.5t90 -96.5t30 -196v-348q0 -74 1 -104.5t6 -56.5t15 -41.5t29.5 -26.5t63.5 -23v-49h-274l5 143l-15 4 q-87 -89 -163.5 -126t-162.5 -37q-76 0 -134 29.5t-89 83t-31 123.5zM204 1127l224 315h134l214 -315l-69 -57l-212 243h-11l-212 -243zM253 245q0 -57 23 -90t58 -45.5t83 -12.5q68 0 123.5 33t86.5 84t31 101v141q-203 -2 -304 -54t-101 -157z" />
<glyph unicode="&#xe3;" horiz-adv-x="1000" d="M80 220q0 146 144.5 225.5t433.5 92.5v65q0 104 -20 164t-63 88t-115 28q-78 0 -125.5 -41t-71.5 -123h-131v130q96 50 160 73.5t128 37t130 13.5q99 0 159 -31.5t90 -96.5t30 -196v-348q0 -74 1 -104.5t6 -56.5t15 -41.5t29.5 -26.5t63.5 -23v-49h-274l5 143l-15 4 q-87 -89 -163.5 -126t-162.5 -37q-76 0 -134 29.5t-89 83t-31 123.5zM159 1162q48 96 78 133.5t61.5 54t75.5 16.5q24 0 43.5 -5.5t36 -14.5t56.5 -36q29 -20 46 -31t35 -17.5t41 -6.5q32 0 57 24.5t54 86.5l78 -34q-38 -82 -72.5 -126.5t-66 -61t-71.5 -16.5q-27 0 -47 5.5 t-39.5 16t-60.5 38.5q-27 18 -42.5 28t-32.5 16.5t-36 6.5q-26 0 -43.5 -10t-35.5 -35t-37 -66zM253 245q0 -57 23 -90t58 -45.5t83 -12.5q68 0 123.5 33t86.5 84t31 101v141q-203 -2 -304 -54t-101 -157z" />
<glyph unicode="&#xe4;" horiz-adv-x="1000" d="M80 220q0 146 144.5 225.5t433.5 92.5v65q0 104 -20 164t-63 88t-115 28q-78 0 -125.5 -41t-71.5 -123h-131v130q96 50 160 73.5t128 37t130 13.5q99 0 159 -31.5t90 -96.5t30 -196v-348q0 -74 1 -104.5t6 -56.5t15 -41.5t29.5 -26.5t63.5 -23v-49h-274l5 143l-15 4 q-87 -89 -163.5 -126t-162.5 -37q-76 0 -134 29.5t-89 83t-31 123.5zM237 1163v176h167v-176h-167zM253 245q0 -57 23 -90t58 -45.5t83 -12.5q68 0 123.5 33t86.5 84t31 101v141q-203 -2 -304 -54t-101 -157zM576 1163v176h167v-176h-167z" />
<glyph unicode="&#xe5;" horiz-adv-x="1000" d="M80 220q0 146 144.5 225.5t433.5 92.5v65q0 104 -20 164t-63 88t-115 28q-78 0 -125.5 -41t-71.5 -123h-131v130q96 50 160 73.5t128 37t130 13.5q99 0 159 -31.5t90 -96.5t30 -196v-348q0 -74 1 -104.5t6 -56.5t15 -41.5t29.5 -26.5t63.5 -23v-49h-274l5 143l-15 4 q-87 -89 -163.5 -126t-162.5 -37q-76 0 -134 29.5t-89 83t-31 123.5zM253 245q0 -57 23 -90t58 -45.5t83 -12.5q68 0 123.5 33t86.5 84t31 101v141q-203 -2 -304 -54t-101 -157zM263 1268q0 66 29.5 112.5t81.5 69t118 22.5q110 0 167 -50t57 -145q0 -99 -60.5 -152.5 t-171.5 -53.5q-108 0 -164.5 50t-56.5 147zM368 1275q0 -67 31 -104.5t93 -37.5q58 0 88.5 35t30.5 98q0 70 -32.5 107t-88.5 37q-60 0 -91 -35t-31 -100z" />
<glyph unicode="&#xe6;" horiz-adv-x="1541" d="M80 220q0 146 144.5 225.5t433.5 92.5v65q0 104 -20 164t-63 88t-115 28q-78 0 -125.5 -41t-71.5 -123h-131v130q96 50 160 73.5t128 37t130 13.5q88 0 140 -33t84 -106h12q58 70 130 104.5t164 34.5q101 0 172 -32t113.5 -87.5t66 -140t26.5 -220.5h-630v-18 q0 -118 26.5 -198.5t87 -126t157.5 -45.5q82 0 147.5 30.5t130.5 99.5l61 -65q-64 -67 -117.5 -105t-117.5 -59.5t-141 -21.5q-129 0 -218 48t-137 145h-7q-70 -73 -125 -113t-114 -60t-127 -20q-76 0 -134 29.5t-89 83t-31 123.5zM253 245q0 -57 23 -90t58 -45.5t83 -12.5 q68 0 123.5 33t86.5 84t31 101v141q-203 -2 -304 -54t-101 -157zM833 576h437q-6 108 -27 176.5t-63 105t-110 36.5q-103 0 -164.5 -82.5t-72.5 -235.5z" />
<glyph unicode="&#xe7;" horiz-adv-x="903" d="M105 472q0 148 56 262.5t157 176.5t233 62q82 0 151.5 -9.5t139.5 -30.5v-209h-127q-17 65 -42 102.5t-58 52.5t-82 15q-70 0 -124 -45t-85.5 -137t-31.5 -223q0 -86 12 -156.5t41 -121t77 -78.5t119 -28q69 0 128.5 27t123.5 95l57 -66q-28 -31 -66 -65.5t-88 -62.5 l-152 -113q10 -22 17 -53t7 -59q0 -103 -81.5 -165.5t-233.5 -72.5l-13 74q65 8 104 30t54 51.5t15 71.5q0 26 -6 52v40l141 98q-25 -3 -54 -3q-189 0 -289 125.5t-100 362.5z" />
<glyph unicode="&#xe8;" horiz-adv-x="999" d="M104 472q0 149 53.5 263t152.5 176t228 62q101 0 172 -32t113.5 -87.5t66 -140t26.5 -220.5h-630v-18q0 -118 26.5 -198.5t87 -126t157.5 -45.5q82 0 147.5 30.5t130.5 99.5l61 -65q-64 -67 -117.5 -105t-117.5 -59.5t-141 -21.5q-206 0 -311 123.5t-105 364.5zM263 1392 v50h175l207 -320l-66 -52zM291 576h437q-6 108 -27 176.5t-63 105t-110 36.5q-103 0 -164.5 -82.5t-72.5 -235.5z" />
<glyph unicode="&#xe9;" horiz-adv-x="999" d="M104 472q0 149 53.5 263t152.5 176t228 62q101 0 172 -32t113.5 -87.5t66 -140t26.5 -220.5h-630v-18q0 -118 26.5 -198.5t87 -126t157.5 -45.5q82 0 147.5 30.5t130.5 99.5l61 -65q-64 -67 -117.5 -105t-117.5 -59.5t-141 -21.5q-206 0 -311 123.5t-105 364.5zM291 576 h437q-6 108 -27 176.5t-63 105t-110 36.5q-103 0 -164.5 -82.5t-72.5 -235.5zM387 1122l207 320h175v-50l-317 -322z" />
<glyph unicode="&#xea;" horiz-adv-x="999" d="M104 472q0 149 53.5 263t152.5 176t228 62q101 0 172 -32t113.5 -87.5t66 -140t26.5 -220.5h-630v-18q0 -118 26.5 -198.5t87 -126t157.5 -45.5q82 0 147.5 30.5t130.5 99.5l61 -65q-64 -67 -117.5 -105t-117.5 -59.5t-141 -21.5q-206 0 -311 123.5t-105 364.5zM230 1127 l224 315h134l214 -315l-69 -57l-212 243h-11l-212 -243zM291 576h437q-6 108 -27 176.5t-63 105t-110 36.5q-103 0 -164.5 -82.5t-72.5 -235.5z" />
<glyph unicode="&#xeb;" horiz-adv-x="999" d="M104 472q0 149 53.5 263t152.5 176t228 62q101 0 172 -32t113.5 -87.5t66 -140t26.5 -220.5h-630v-18q0 -118 26.5 -198.5t87 -126t157.5 -45.5q82 0 147.5 30.5t130.5 99.5l61 -65q-64 -67 -117.5 -105t-117.5 -59.5t-141 -21.5q-206 0 -311 123.5t-105 364.5zM263 1163 v176h167v-176h-167zM291 576h437q-6 108 -27 176.5t-63 105t-110 36.5q-103 0 -164.5 -82.5t-72.5 -235.5zM602 1163v176h167v-176h-167z" />
<glyph unicode="&#xec;" horiz-adv-x="569" d="M35 1392v50h175l207 -320l-66 -52zM83 903v53l233 9h61v-715q0 -86 8 -119.5t30.5 -51t73.5 -30.5v-49h-392v49q39 12 55.5 21t28 25t18 49t6.5 103v436q0 64 -2 103t-14 62.5t-36.5 35t-69.5 19.5z" />
<glyph unicode="&#xed;" horiz-adv-x="569" d="M83 903v53l233 9h61v-715q0 -86 8 -119.5t30.5 -51t73.5 -30.5v-49h-392v49q39 12 55.5 21t28 25t18 49t6.5 103v436q0 64 -2 103t-14 62.5t-36.5 35t-69.5 19.5zM162 1122l207 320h175v-50l-317 -322z" />
<glyph unicode="&#xee;" horiz-adv-x="569" d="M-2 1127l224 315h134l214 -315l-69 -57l-212 243h-11l-212 -243zM83 903v53l233 9h61v-715q0 -86 8 -119.5t30.5 -51t73.5 -30.5v-49h-392v49q39 12 55.5 21t28 25t18 49t6.5 103v436q0 64 -2 103t-14 62.5t-36.5 35t-69.5 19.5z" />
<glyph unicode="&#xef;" horiz-adv-x="569" d="M31 1163v176h167v-176h-167zM83 903v53l233 9h61v-715q0 -86 8 -119.5t30.5 -51t73.5 -30.5v-49h-392v49q39 12 55.5 21t28 25t18 49t6.5 103v436q0 64 -2 103t-14 62.5t-36.5 35t-69.5 19.5zM370 1163v176h167v-176h-167z" />
<glyph unicode="&#xf0;" horiz-adv-x="1086" d="M105 443q0 153 52.5 263t150.5 168t230 58q70 0 126.5 -19.5t107.5 -61.5l12 7q-62 211 -218 338l-307 -173l-44 77l269 149q-96 59 -247 101l22 85q192 -44 335 -122l201 113l44 -77l-162 -87q148 -108 224.5 -287t76.5 -421q0 -178 -46.5 -305t-147 -196t-255.5 -69 q-205 0 -314.5 119t-109.5 340zM293 465q0 -196 66.5 -299t189.5 -103q80 0 134.5 45t82.5 135t28 224q0 122 -29 209.5t-84 132t-134 44.5q-70 0 -118.5 -29t-79 -81t-43.5 -123.5t-13 -154.5zM1086 956z" />
<glyph unicode="&#xf1;" horiz-adv-x="1143" d="M83 903v53l234 9h61l-11 -163l14 -4q74 75 119.5 107t92 49.5t98.5 17.5q54 0 96.5 -12.5t75 -38.5t53.5 -64.5t31.5 -92.5t10.5 -137v-377q0 -69 4 -100t14 -48t29 -28.5t66 -24.5v-49h-394v49q39 12 56 21t28.5 25t18 49.5t6.5 101.5v262q0 70 -4 127t-13.5 93.5 t-23 57t-32 35t-42.5 23t-63 8.5t-74 -15.5t-77 -53.5t-61 -75t-19 -85v-373q0 -86 8 -119.5t30.5 -51t73.5 -30.5v-49h-392v49q39 12 55.5 21t28 25t18 49t6.5 103v436q0 64 -2 103t-14 62.5t-36.5 35t-69.5 19.5zM242 1162q48 96 78 133.5t61.5 54t75.5 16.5 q24 0 43.5 -5.5t36 -14.5t56.5 -36q29 -20 46 -31t35 -17.5t41 -6.5q32 0 57 24.5t54 86.5l78 -34q-38 -82 -72.5 -126.5t-66 -61t-71.5 -16.5q-27 0 -47 5.5t-39.5 16t-60.5 38.5q-27 18 -42.5 28t-32.5 16.5t-36 6.5q-26 0 -43.5 -10t-35.5 -35t-37 -66z" />
<glyph unicode="&#xf2;" horiz-adv-x="1087" d="M105 469q0 165 57.5 279t157.5 169.5t228 55.5q214 0 324 -124.5t110 -357.5q0 -166 -55 -280t-156 -170.5t-239 -56.5q-208 0 -317.5 122.5t-109.5 362.5zM291 1392v50h175l207 -320l-66 -52zM294 490q0 -206 65.5 -316.5t187.5 -110.5q67 0 114 32.5t76.5 87.5 t42.5 127.5t13 151.5q0 147 -32.5 244t-88.5 142.5t-128 45.5q-121 0 -185.5 -105t-64.5 -299z" />
<glyph unicode="&#xf3;" horiz-adv-x="1087" d="M105 469q0 165 57.5 279t157.5 169.5t228 55.5q214 0 324 -124.5t110 -357.5q0 -166 -55 -280t-156 -170.5t-239 -56.5q-208 0 -317.5 122.5t-109.5 362.5zM294 490q0 -206 65.5 -316.5t187.5 -110.5q67 0 114 32.5t76.5 87.5t42.5 127.5t13 151.5q0 147 -32.5 244 t-88.5 142.5t-128 45.5q-121 0 -185.5 -105t-64.5 -299zM414 1122l207 320h175v-50l-317 -322z" />
<glyph unicode="&#xf4;" horiz-adv-x="1087" d="M105 469q0 165 57.5 279t157.5 169.5t228 55.5q214 0 324 -124.5t110 -357.5q0 -166 -55 -280t-156 -170.5t-239 -56.5q-208 0 -317.5 122.5t-109.5 362.5zM258 1127l224 315h134l214 -315l-69 -57l-212 243h-11l-212 -243zM294 490q0 -206 65.5 -316.5t187.5 -110.5 q67 0 114 32.5t76.5 87.5t42.5 127.5t13 151.5q0 147 -32.5 244t-88.5 142.5t-128 45.5q-121 0 -185.5 -105t-64.5 -299z" />
<glyph unicode="&#xf5;" horiz-adv-x="1087" d="M105 469q0 165 57.5 279t157.5 169.5t228 55.5q214 0 324 -124.5t110 -357.5q0 -166 -55 -280t-156 -170.5t-239 -56.5q-208 0 -317.5 122.5t-109.5 362.5zM214 1162q48 96 78 133.5t61.5 54t75.5 16.5q24 0 43.5 -5.5t36 -14.5t56.5 -36q29 -20 46 -31t35 -17.5t41 -6.5 q32 0 57 24.5t54 86.5l78 -34q-38 -82 -72.5 -126.5t-66 -61t-71.5 -16.5q-27 0 -47 5.5t-39.5 16t-60.5 38.5q-27 18 -42.5 28t-32.5 16.5t-36 6.5q-26 0 -43.5 -10t-35.5 -35t-37 -66zM294 490q0 -206 65.5 -316.5t187.5 -110.5q67 0 114 32.5t76.5 87.5t42.5 127.5 t13 151.5q0 147 -32.5 244t-88.5 142.5t-128 45.5q-121 0 -185.5 -105t-64.5 -299z" />
<glyph unicode="&#xf6;" horiz-adv-x="1087" d="M105 469q0 165 57.5 279t157.5 169.5t228 55.5q214 0 324 -124.5t110 -357.5q0 -166 -55 -280t-156 -170.5t-239 -56.5q-208 0 -317.5 122.5t-109.5 362.5zM291 1163v176h167v-176h-167zM294 490q0 -206 65.5 -316.5t187.5 -110.5q67 0 114 32.5t76.5 87.5t42.5 127.5 t13 151.5q0 147 -32.5 244t-88.5 142.5t-128 45.5q-121 0 -185.5 -105t-64.5 -299zM630 1163v176h167v-176h-167z" />
<glyph unicode="&#xf7;" d="M127 515v139h880v-139h-880zM460 241q0 33 14.5 59t39 39.5t53.5 13.5t53.5 -13.5t39 -39.5t14.5 -59t-14.5 -59t-39 -39.5t-53.5 -13.5t-53.5 13.5t-39 39.5t-14.5 59zM460 928q0 33 14.5 59t39 39.5t53.5 13.5t53.5 -13.5t39 -39.5t14.5 -59t-14.5 -59t-39 -39.5 t-53.5 -13.5t-53.5 13.5t-39 39.5t-14.5 59z" />
<glyph unicode="&#xf8;" horiz-adv-x="1087" d="M91 -135l141 222q-127 123 -127 382q0 165 57.5 279t157.5 169.5t228 55.5q127 0 215 -44l102 163h131l-142 -226q128 -125 128 -375q0 -166 -55 -280t-156 -170.5t-239 -56.5q-120 0 -209 42l-102 -161h-130zM292 490q0 -150 38 -263l366 596q-31 36 -70 53t-83 17 q-121 0 -186 -104.5t-65 -298.5zM389 131q60 -68 158 -68q67 0 114 32.5t76.5 87.5t43 127.5t13.5 151.5q0 87 -9 149t-28 117z" />
<glyph unicode="&#xf9;" horiz-adv-x="1131" d="M73 907v49h285v-509q0 -117 9 -178t27 -92t51 -52t91 -21q38 0 73 15t78 52.5t61.5 74.5t18.5 86v375q0 57 -3 86t-10 46.5t-16.5 28.5t-27 20t-56.5 19v49h285v-683q0 -77 3 -111t13 -54t31 -32.5t75 -23.5v-52l-229 -10h-61l6 164l-15 4q-83 -90 -158.5 -132 t-151.5 -42q-91 0 -150 36t-88 107.5t-29 201.5v378q0 84 -6.5 115.5t-25 50t-80.5 34.5zM298 1392v50h175l207 -320l-66 -52z" />
<glyph unicode="&#xfa;" horiz-adv-x="1131" d="M73 907v49h285v-509q0 -117 9 -178t27 -92t51 -52t91 -21q38 0 73 15t78 52.5t61.5 74.5t18.5 86v375q0 57 -3 86t-10 46.5t-16.5 28.5t-27 20t-56.5 19v49h285v-683q0 -77 3 -111t13 -54t31 -32.5t75 -23.5v-52l-229 -10h-61l6 164l-15 4q-83 -90 -158.5 -132 t-151.5 -42q-91 0 -150 36t-88 107.5t-29 201.5v378q0 84 -6.5 115.5t-25 50t-80.5 34.5zM436 1122l207 320h175v-50l-317 -322z" />
<glyph unicode="&#xfb;" horiz-adv-x="1131" d="M73 907v49h285v-509q0 -117 9 -178t27 -92t51 -52t91 -21q38 0 73 15t78 52.5t61.5 74.5t18.5 86v375q0 57 -3 86t-10 46.5t-16.5 28.5t-27 20t-56.5 19v49h285v-683q0 -77 3 -111t13 -54t31 -32.5t75 -23.5v-52l-229 -10h-61l6 164l-15 4q-83 -90 -158.5 -132 t-151.5 -42q-91 0 -150 36t-88 107.5t-29 201.5v378q0 84 -6.5 115.5t-25 50t-80.5 34.5zM279 1127l224 315h134l214 -315l-69 -57l-212 243h-11l-212 -243z" />
<glyph unicode="&#xfc;" horiz-adv-x="1131" d="M73 907v49h285v-509q0 -117 9 -178t27 -92t51 -52t91 -21q38 0 73 15t78 52.5t61.5 74.5t18.5 86v375q0 57 -3 86t-10 46.5t-16.5 28.5t-27 20t-56.5 19v49h285v-683q0 -77 3 -111t13 -54t31 -32.5t75 -23.5v-52l-229 -10h-61l6 164l-15 4q-83 -90 -158.5 -132 t-151.5 -42q-91 0 -150 36t-88 107.5t-29 201.5v378q0 84 -6.5 115.5t-25 50t-80.5 34.5zM312 1163v176h167v-176h-167zM651 1163v176h167v-176h-167z" />
<glyph unicode="&#xfd;" horiz-adv-x="1032" d="M20 907v49h407v-49q-47 -11 -66 -21.5t-28 -27t-9 -42.5q0 -27 6.5 -56t20.5 -68l178 -501l200 480q17 40 26.5 73.5t9.5 62.5q0 43 -23.5 65t-81.5 35v49h374v-49q-39 -8 -60 -24.5t-42 -52t-50 -99.5l-362 -813q-55 -124 -107 -201t-114.5 -116t-148.5 -39 q-55 0 -124 13v198h89q12 -41 30 -57t52 -16q30 0 53.5 11.5t49 39.5t60 86t77.5 147l-280 753q-27 73 -43.5 102t-35.5 44t-58 24zM405 1122l207 320h175v-50l-317 -322z" />
<glyph unicode="&#xfe;" horiz-adv-x="1121" d="M49 1369v52l241 10h60v-632l4 -1q62 63 98.5 92t74 47.5t73 26.5t75.5 8q165 0 253.5 -123.5t88.5 -361.5q0 -162 -49.5 -275t-145 -170.5t-228.5 -57.5q-131 0 -244 41v-206q0 -65 4.5 -97t16 -50.5t33 -30.5t69.5 -22v-49h-408v49q36 10 58.5 20.5t34.5 31t16 55.5 t4 93v1268q0 96 -1.5 134t-8 64.5t-18 41.5t-31 24t-70.5 18zM350 360q0 -83 8.5 -130.5t26.5 -76.5t48 -50.5t69.5 -30.5t86.5 -9q117 0 178.5 103t61.5 294q0 196 -56.5 294t-172.5 98q-56 0 -96.5 -17.5t-80.5 -56.5t-56.5 -75.5t-16.5 -78.5v-264z" />
<glyph unicode="&#xff;" horiz-adv-x="1032" d="M20 907v49h407v-49q-47 -11 -66 -21.5t-28 -27t-9 -42.5q0 -27 6.5 -56t20.5 -68l178 -501l200 480q17 40 26.5 73.5t9.5 62.5q0 43 -23.5 65t-81.5 35v49h374v-49q-39 -8 -60 -24.5t-42 -52t-50 -99.5l-362 -813q-55 -124 -107 -201t-114.5 -116t-148.5 -39 q-55 0 -124 13v198h89q12 -41 30 -57t52 -16q30 0 53.5 11.5t49 39.5t60 86t77.5 147l-280 753q-27 73 -43.5 102t-35.5 44t-58 24zM266 1163v176h167v-176h-167zM605 1163v176h167v-176h-167z" />
<glyph unicode="&#x152;" horiz-adv-x="1902" d="M119 671q0 225 67 385t189.5 242.5t280.5 82.5q111 0 188 -30.5t147 -100.5h10v115h779v-302h-98q-15 49 -31 86t-33 62t-37.5 40t-48.5 20.5t-67 5.5h-301v-524h199q44 0 69 12.5t41.5 42.5t31.5 94h94v-384h-94q-14 60 -31 90.5t-40.5 43.5t-70.5 13h-199v-577h296 q49 0 79.5 8.5t52.5 29t39 53.5t28.5 68.5t31.5 103.5h99l-19 -351h-779v135h-10q-76 -79 -158.5 -115t-188.5 -36q-115 0 -209.5 39.5t-163 123t-106 213.5t-37.5 311zM325 699q0 -308 87.5 -467.5t254.5 -159.5q158 0 240 151t82 435q0 172 -24.5 292.5t-68 196.5 t-104.5 111t-133 35q-88 0 -151 -41.5t-104 -119t-60 -187.5t-19 -246z" />
<glyph unicode="&#x153;" horiz-adv-x="1676" d="M105 469q0 165 57.5 279t157.5 169.5t228 55.5q108 0 188.5 -39t147.5 -127h9q79 90 153 128t168 38q96 0 164.5 -28.5t113 -80t71.5 -137.5t30 -234h-630v-18q0 -118 26.5 -198.5t87 -126t157.5 -45.5q82 0 147.5 30.5t130.5 99.5l61 -65q-59 -64 -113.5 -103 t-121.5 -61t-148 -22q-75 0 -130.5 18.5t-98 52.5t-86.5 93h-8q-76 -90 -151 -127t-184 -37q-208 0 -317.5 122.5t-109.5 362.5zM294 490q0 -206 65.5 -316.5t187.5 -110.5q67 0 113.5 32.5t76 87.5t42.5 127.5t13 151.5q0 149 -32.5 246.5t-88 141.5t-128.5 44 q-121 0 -185 -105t-64 -299zM968 576h437q-9 166 -57 242t-143 76q-102 0 -163.5 -81.5t-73.5 -236.5z" />
<glyph unicode="&#x178;" horiz-adv-x="1168" d="M18 1316v49h426v-49q-94 -11 -94 -81q0 -29 13.5 -65t48.5 -102l200 -381l197 348q40 71 56.5 116.5t16.5 83.5q0 36 -21.5 56.5t-63.5 24.5v49h379v-49q-41 -15 -72 -41.5t-63 -71.5t-94 -152l-278 -474v-324q0 -57 6 -92t20 -56t37 -33t72 -23v-49h-457v49 q48 10 71 21.5t37 33t20.5 56.5t6.5 93v320l-276 513q-50 93 -76 133t-52 63t-60 34zM346 1514v176h167v-176h-167zM715 1514v176h167v-176h-167z" />
<glyph unicode="&#x2c6;" horiz-adv-x="583" d="M6 1127l224 315h134l214 -315l-69 -57l-212 243h-11l-212 -243z" />
<glyph unicode="&#x2dc;" horiz-adv-x="583" d="M-38 1162q48 96 78 133.5t61.5 54t75.5 16.5q24 0 43.5 -5.5t36 -14.5t56.5 -36q29 -20 46 -31t35 -17.5t41 -6.5q32 0 57 24.5t54 86.5l78 -34q-38 -82 -72.5 -126.5t-66 -61t-71.5 -16.5q-27 0 -47 5.5t-39.5 16t-60.5 38.5q-27 18 -42.5 28t-32.5 16.5t-36 6.5 q-26 0 -43.5 -10t-35.5 -35t-37 -66z" />
<glyph unicode="&#x2000;" horiz-adv-x="912" />
<glyph unicode="&#x2001;" horiz-adv-x="1825" />
<glyph unicode="&#x2002;" horiz-adv-x="912" />
<glyph unicode="&#x2003;" horiz-adv-x="1825" />
<glyph unicode="&#x2004;" horiz-adv-x="608" />
<glyph unicode="&#x2005;" horiz-adv-x="456" />
<glyph unicode="&#x2006;" horiz-adv-x="304" />
<glyph unicode="&#x2007;" horiz-adv-x="304" />
<glyph unicode="&#x2008;" horiz-adv-x="228" />
<glyph unicode="&#x2009;" horiz-adv-x="365" />
<glyph unicode="&#x200a;" horiz-adv-x="101" />
<glyph unicode="&#x2010;" horiz-adv-x="680" d="M108 449v155h464v-155h-464z" />
<glyph unicode="&#x2011;" horiz-adv-x="680" d="M108 449v155h464v-155h-464z" />
<glyph unicode="&#x2012;" horiz-adv-x="680" d="M108 449v155h464v-155h-464z" />
<glyph unicode="&#x2013;" horiz-adv-x="1024" d="M90 460v132h844v-132h-844z" />
<glyph unicode="&#x2014;" horiz-adv-x="2048" d="M90 460v132h1868v-132h-1868z" />
<glyph unicode="&#x2018;" horiz-adv-x="453" d="M105 1102q0 62 18 111.5t59.5 101.5t138.5 138l61 -60q-51 -63 -73 -123t-22 -144q0 -30 3 -64.5t15 -102.5h-175q-12 33 -18.5 72t-6.5 71zM453 1431z" />
<glyph unicode="&#x2019;" horiz-adv-x="453" d="M71 997q49 59 72 119.5t23 147.5q0 30 -3 64t-15 103h175q12 -33 18.5 -72t6.5 -71q0 -66 -20 -117t-63.5 -103.5t-132.5 -130.5z" />
<glyph unicode="&#x201a;" horiz-adv-x="420" d="M46 -212q49 59 72 119.5t23 147.5q0 30 -3 64t-15 103h175q12 -33 18.5 -72t6.5 -71q0 -66 -20 -117t-63.5 -103.5t-132.5 -130.5z" />
<glyph unicode="&#x201c;" horiz-adv-x="769" d="M105 1105q0 63 18 113.5t60 103.5t123 126l57 -54q-55 -70 -74.5 -131.5t-19.5 -150.5q0 -67 17 -148h-159q-11 36 -16.5 74t-5.5 67zM440 1105q0 63 18 113.5t60 103.5t123 126l57 -54q-55 -70 -74.5 -131.5t-19.5 -150.5q0 -67 17 -148h-159q-11 36 -16.5 74t-5.5 67z M769 1431z" />
<glyph unicode="&#x201d;" horiz-adv-x="769" d="M71 1001q41 53 58.5 90t26.5 83t9 109q0 67 -17 148h159q11 -36 16.5 -74t5.5 -67q0 -63 -17.5 -113t-59 -102t-124.5 -128zM406 1001q41 53 58.5 90t26.5 83t9 109q0 67 -17 148h159q11 -36 16.5 -74t5.5 -67q0 -63 -17.5 -113t-59 -102t-124.5 -128z" />
<glyph unicode="&#x201e;" horiz-adv-x="738" d="M47 -208q41 53 58.5 90t26.5 83t9 109q0 67 -17 148h159q11 -36 16.5 -74t5.5 -67q0 -63 -17.5 -113t-59 -102t-124.5 -128zM382 -208q41 53 58.5 90t26.5 83t9 109q0 67 -17 148h159q11 -36 16.5 -74t5.5 -67q0 -63 -17.5 -113t-59 -102t-124.5 -128z" />
<glyph unicode="&#x2022;" horiz-adv-x="908" d="M149 587q0 82 39.5 151t111 110t158.5 41q89 0 157.5 -38.5t105.5 -107.5t37 -157q0 -87 -39.5 -157t-110 -109.5t-158.5 -39.5q-89 0 -157.5 39.5t-106 110t-37.5 157.5z" />
<glyph unicode="&#x2026;" horiz-adv-x="1540" d="M249 0v232h202v-232h-202zM739 0v232h202v-232h-202zM1229 0v232h202v-232h-202z" />
<glyph unicode="&#x202f;" horiz-adv-x="365" />
<glyph unicode="&#x2039;" horiz-adv-x="620" d="M100 455v74l356 393l64 -50l-238 -380l238 -379l-64 -50z" />
<glyph unicode="&#x203a;" horiz-adv-x="620" d="M100 112l239 380l-239 379l64 50l356 -392v-74l-356 -393z" />
<glyph unicode="&#x205f;" horiz-adv-x="456" />
<glyph unicode="&#x20ac;" horiz-adv-x="1287" d="M35 526v96h232v49q0 61 6 125h-167v96h181q48 237 192 363t358 126q91 0 167.5 -9.5t171.5 -35.5v-227h-99q-25 69 -61.5 109.5t-85 57.5t-116.5 17q-84 0 -155 -46t-119 -136.5t-66 -218.5h607v-96h-615q-5 -43 -5 -110v-31q0 -17 1 -33h548v-96h-544q9 -99 32 -182.5 t62 -143.5t96 -94t134 -34q81 0 133 17.5t86.5 56t67.5 114.5h99v-226q-90 -24 -187.5 -37t-215.5 -13q-223 0 -348.5 137t-151.5 405h-238z" />
<glyph unicode="&#x2122;" horiz-adv-x="1391" d="M38 1279v86h489v-86h-187v-496h-114v496h-188zM616 783v582h168l155 -400l169 400h162v-582h-111v310q0 70 3 138h-11l-171 -389h-98l-158 398h-13q4 -52 4 -137v-320h-99z" />
<glyph unicode="&#x25fc;" horiz-adv-x="955" d="M0 0v955h955v-955h-955z" />
<glyph unicode="&#xfb01;" horiz-adv-x="1189" d="M79 855v51q54 6 75.5 21.5t31.5 45.5t13 83q7 123 56.5 209t132.5 128.5t193 42.5q57 0 108 -9v-183h-82q-11 55 -32.5 79.5t-61.5 24.5q-37 0 -63.5 -17t-45 -53.5t-25.5 -94.5t-7 -139v-88h239v-101h-239v-605q0 -67 6.5 -101t19 -51.5t33 -28t65.5 -20.5v-49h-409v49 q44 12 63 23t29.5 28t15.5 49t5 101v605h-121zM703 903v53l233 9h61v-715q0 -86 8 -119.5t30.5 -51t73.5 -30.5v-49h-392v49q39 12 55.5 21t28 25t18 49t6.5 103v436q0 64 -2 103t-14 62.5t-36.5 35t-69.5 19.5zM820 1154v194h184v-194h-184z" />
<glyph unicode="&#xfb02;" horiz-adv-x="1175" d="M79 855v51q54 6 75.5 21.5t31.5 45.5t13 83q7 123 56.5 209t132.5 128.5t193 42.5q57 0 108 -9v-6l235 10h60v-1181q0 -86 8 -119.5t30.5 -51t73.5 -30.5v-49h-397v49q44 12 63 23t29.5 28t15.5 49t5 101v837q0 96 -1.5 134t-8 64t-17.5 41t-30.5 24.5t-65.5 17.5v-124 h-82q-11 55 -32.5 79.5t-61.5 24.5q-37 0 -63.5 -17t-45 -53.5t-25.5 -94.5t-7 -139v-88h239v-101h-239v-605q0 -67 6.5 -101t19 -51.5t33 -28t65.5 -20.5v-49h-409v49q44 12 63 23t29.5 28t15.5 49t5 101v605h-121z" />
</font>
</defs>
</svg>
